<svg width="1920" height="525" viewBox="0 0 1920 525" fill="none" xmlns="http://www.w3.org/2000/svg">
<g clip-path="url(#clip0_1_517)">
<path d="M0 0H1924V445C1924 489.183 1888.18 525 1844 525H0V0Z" fill="#122038"/>
<g opacity="0.7">
<g filter="url(#filter0_f_1_517)">
<circle cx="-149" r="372" fill="#5BFB94"/>
</g>
<g filter="url(#filter1_f_1_517)">
<circle cx="-149" cy="0.000274658" r="226.232" fill="#5BFB94"/>
</g>
</g>
<g opacity="0.7" filter="url(#filter2_f_1_517)">
<circle cx="1713" cy="481" r="224" fill="#DEFC7B"/>
</g>
<path d="M677.005 178.068H651.404C649.08 178.068 647.918 177.419 647.918 176.12C647.918 171.631 648.693 168.099 650.242 165.524C651.359 163.679 652.749 162.266 654.412 161.286C656.098 160.284 657.876 159.326 659.744 158.415C662.661 157.002 665.714 155.236 668.904 153.117C672.117 150.975 673.724 148.093 673.724 144.47C673.724 137.884 670.659 134.592 664.529 134.592C662.251 134.592 660.337 135.184 658.787 136.369C656.372 138.215 655.164 140.926 655.164 144.504V145.222C655.164 146.475 654.013 147.102 651.712 147.102C649.593 147.102 648.442 146.532 648.26 145.393C648.191 144.914 648.157 144.436 648.157 143.957C648.157 139.058 650.47 135.367 655.096 132.883C657.785 131.447 660.929 130.729 664.529 130.729C668.608 130.729 672.322 131.937 675.672 134.353C679.021 136.745 680.696 140.152 680.696 144.572C680.696 148.924 678.851 152.365 675.159 154.895C671.468 157.401 667.856 159.532 664.324 161.286C662.934 161.97 661.544 162.699 660.154 163.474C658.764 164.248 657.648 165.331 656.805 166.721C655.711 168.521 655.073 171.016 654.891 174.206H677.005C679.306 174.206 680.457 174.844 680.457 176.12C680.457 177.419 679.306 178.068 677.005 178.068ZM704.109 178.82C697.82 178.82 693.377 176.109 690.779 170.686C688.182 165.262 686.883 159.965 686.883 154.792C686.883 149.619 688.17 144.333 690.745 138.933C693.343 133.509 697.798 130.798 704.109 130.798C710.421 130.798 714.865 133.509 717.439 138.933C720.037 144.333 721.336 149.619 721.336 154.792C721.336 159.965 720.037 165.262 717.439 170.686C714.842 176.109 710.398 178.82 704.109 178.82ZM704.109 174.992C708.188 174.992 710.888 172.36 712.21 167.097C713.532 161.833 714.192 157.743 714.192 154.826C714.192 151.887 713.532 147.785 712.21 142.521C710.888 137.258 708.188 134.626 704.109 134.626C700.053 134.626 697.353 137.258 696.009 142.521C694.687 147.785 694.026 151.887 694.026 154.826C694.026 157.743 694.687 161.833 696.009 167.097C697.33 172.36 700.031 174.992 704.109 174.992ZM756.575 178.068H730.975C728.65 178.068 727.488 177.419 727.488 176.12C727.488 171.631 728.263 168.099 729.812 165.524C730.929 163.679 732.319 162.266 733.982 161.286C735.669 160.284 737.446 159.326 739.314 158.415C742.231 157.002 745.285 155.236 748.475 153.117C751.688 150.975 753.294 148.093 753.294 144.47C753.294 137.884 750.229 134.592 744.1 134.592C741.821 134.592 739.907 135.184 738.357 136.369C735.942 138.215 734.734 140.926 734.734 144.504V145.222C734.734 146.475 733.584 147.102 731.282 147.102C729.163 147.102 728.012 146.532 727.83 145.393C727.762 144.914 727.728 144.436 727.728 143.957C727.728 139.058 730.04 135.367 734.666 132.883C737.355 131.447 740.499 130.729 744.1 130.729C748.178 130.729 751.893 131.937 755.242 134.353C758.592 136.745 760.267 140.152 760.267 144.572C760.267 148.924 758.421 152.365 754.729 154.895C751.038 157.401 747.426 159.532 743.895 161.286C742.505 161.97 741.115 162.699 739.725 163.474C738.335 164.248 737.218 165.331 736.375 166.721C735.281 168.521 734.643 171.016 734.461 174.206H756.575C758.877 174.206 760.027 174.844 760.027 176.12C760.027 177.419 758.877 178.068 756.575 178.068ZM783.851 178.82C779.544 178.82 775.682 177.715 772.264 175.505C768.846 173.295 767.137 169.854 767.137 165.183C767.137 163.907 768.287 163.269 770.589 163.269C772.913 163.269 774.075 163.907 774.075 165.183C774.075 171.722 777.334 174.992 783.851 174.992C789.729 174.992 792.669 171.722 792.669 165.183C792.669 160.192 790.413 157.139 785.901 156.022C785.354 155.886 783.908 155.817 781.561 155.817C779.259 155.817 778.108 155.179 778.108 153.903C778.108 152.764 779.191 152.126 781.355 151.989C783.224 151.898 784.614 151.704 785.525 151.408C789.422 150.155 791.37 147.535 791.37 143.547C791.325 137.6 788.271 134.626 782.21 134.626C776.559 134.626 773.847 137.759 774.075 144.025L774.109 144.812C774.132 146.065 772.97 146.691 770.623 146.691C768.39 146.691 767.239 146.076 767.171 144.846V143.889C767.171 139.536 768.686 136.267 771.717 134.079C774.77 131.892 778.393 130.798 782.586 130.798C786.482 130.775 790.06 131.823 793.318 133.942C796.6 136.062 798.252 139.263 798.274 143.547C798.297 147.922 796.167 151.249 791.883 153.527C797.01 155.897 799.573 159.805 799.573 165.251C799.573 169.58 797.967 172.93 794.754 175.3C791.564 177.647 787.929 178.82 783.851 178.82ZM863.899 178.82C861.826 178.82 860.573 178.33 860.14 177.351L853.885 163.166H832.591L826.302 177.761C826.006 178.467 825.151 178.82 823.738 178.82C821.893 178.82 820.97 178.365 820.97 177.453C820.97 177.385 820.993 177.282 821.038 177.146L840.452 132.199C840.84 131.265 842.138 130.798 844.349 130.798C846.285 130.798 847.47 131.276 847.903 132.233L867.454 176.53C867.522 176.69 867.557 176.838 867.557 176.975C867.557 178.205 866.338 178.82 863.899 178.82ZM852.176 159.338L843.118 138.796L834.266 159.338H852.176ZM901.189 178.82C898.888 178.82 897.737 178.182 897.737 176.906V159.201C897.737 156.535 897.008 153.949 895.55 151.442C894.091 148.936 891.79 147.683 888.646 147.683C885.273 147.683 882.789 149.05 881.194 151.784C879.599 154.496 878.802 157.276 878.802 160.124V176.906C878.802 178.182 877.651 178.82 875.35 178.82C873.025 178.82 871.863 178.182 871.863 176.906V145.769C871.863 144.493 873.025 143.854 875.35 143.854C877.651 143.854 878.802 144.493 878.802 145.769V147.819C881.308 145.153 884.726 143.82 889.056 143.82C893.613 143.82 897.35 145.279 900.267 148.195C903.206 151.089 904.676 154.746 904.676 159.167V176.906C904.676 178.182 903.514 178.82 901.189 178.82ZM940.838 178.82C938.536 178.82 937.386 178.182 937.386 176.906V159.201C937.386 156.535 936.657 153.949 935.198 151.442C933.74 148.936 931.438 147.683 928.294 147.683C924.922 147.683 922.438 149.05 920.843 151.784C919.248 154.496 918.45 157.276 918.45 160.124V176.906C918.45 178.182 917.299 178.82 914.998 178.82C912.674 178.82 911.512 178.182 911.512 176.906V145.769C911.512 144.493 912.674 143.854 914.998 143.854C917.299 143.854 918.45 144.493 918.45 145.769V147.819C920.957 145.153 924.375 143.82 928.704 143.82C933.261 143.82 936.998 145.279 939.915 148.195C942.854 151.089 944.324 154.746 944.324 159.167V176.906C944.324 178.182 943.162 178.82 940.838 178.82ZM954.646 143.82C956.948 143.82 958.099 144.458 958.099 145.734V163.439C958.099 166.105 958.828 168.692 960.286 171.198C961.744 173.705 964.046 174.958 967.19 174.958C970.563 174.958 973.047 173.602 974.642 170.891C976.237 168.156 977.034 165.365 977.034 162.517V145.734C977.034 144.458 978.185 143.82 980.486 143.82C982.811 143.82 983.973 144.458 983.973 145.734V176.872C983.973 178.148 982.811 178.786 980.486 178.786C978.185 178.786 977.034 178.148 977.034 176.872V174.821C974.528 177.487 971.11 178.82 966.78 178.82C962.223 178.82 958.475 177.373 955.535 174.479C952.618 171.563 951.16 167.894 951.16 163.474V145.734C951.16 144.458 952.322 143.82 954.646 143.82ZM1022.22 178.82C1021.19 178.82 1020.36 178.627 1019.72 178.239C1018.13 177.305 1017.13 176.086 1016.72 174.582C1015.26 176.291 1013.3 177.43 1010.84 178C1008.4 178.547 1006.2 178.82 1004.24 178.82C1001.12 178.82 997.952 178.08 994.739 176.599C991.549 175.095 989.954 172.52 989.954 168.874C989.954 164.727 991.526 162.095 994.671 160.979C997.815 159.862 1001.07 159.304 1004.45 159.304C1005.18 159.304 1006.06 159.326 1007.11 159.372C1008.18 159.418 1009.19 159.44 1010.12 159.44C1012.69 159.44 1014.53 159.144 1015.62 158.552V155.305C1015.62 150.178 1012.65 147.614 1006.7 147.614C1004.51 147.614 1002.57 148.161 1000.86 149.255C998.875 150.531 997.884 152.058 997.884 153.835C997.884 155.088 996.722 155.715 994.397 155.715C992.119 155.715 990.979 155.088 990.979 153.835C990.979 151.169 992.506 148.822 995.56 146.794C998.59 144.812 1002.3 143.82 1006.7 143.82C1010.23 143.82 1013.75 144.686 1017.26 146.418C1020.77 148.127 1022.53 151.089 1022.53 155.305V170.036C1022.53 172.907 1023.27 174.764 1024.75 175.607C1025.39 175.972 1025.71 176.405 1025.71 176.906C1025.71 177.476 1025.35 177.943 1024.65 178.308C1024.03 178.649 1023.22 178.82 1022.22 178.82ZM1004.24 175.026C1006.82 175.026 1009.36 174.263 1011.86 172.736C1014.37 171.187 1015.62 168.999 1015.62 166.174V162.893C1014.32 163.12 1012.73 163.234 1010.84 163.234C1009.79 163.234 1008.73 163.212 1007.66 163.166C1006.59 163.098 1005.52 163.063 1004.45 163.063C999.41 163.063 996.893 165 996.893 168.874C996.893 172.976 999.342 175.026 1004.24 175.026ZM1032.61 178.82C1030.29 178.82 1029.12 178.182 1029.12 176.906V132.712C1029.12 131.436 1030.29 130.798 1032.61 130.798C1034.91 130.798 1036.06 131.436 1036.06 132.712V176.906C1036.06 178.182 1034.91 178.82 1032.61 178.82ZM1097.86 178.82C1096.97 178.82 1096.2 178.649 1095.54 178.308C1092.94 177.009 1090.98 175.266 1089.66 173.078C1088.33 170.891 1087.15 168.646 1086.1 166.345C1085.33 164.613 1084.3 162.631 1083.03 160.397C1081.77 158.142 1079.99 157.014 1077.69 157.014H1066.11V176.906C1066.11 178.182 1064.94 178.82 1062.62 178.82C1060.32 178.82 1059.17 178.182 1059.17 176.906V133.532C1059.17 132.256 1060.32 131.618 1062.62 131.618H1083.78C1087.49 131.618 1090.93 132.746 1094.1 135.002C1097.27 137.258 1098.85 140.357 1098.85 144.299C1098.85 151.021 1095.02 155.134 1087.37 156.638C1088.64 157.823 1089.69 159.201 1090.51 160.773C1091.35 162.323 1092.13 163.872 1092.83 165.422C1093.63 167.222 1094.59 169.113 1095.71 171.096C1096.82 173.078 1098.32 174.536 1100.18 175.471C1100.94 175.858 1101.31 176.337 1101.31 176.906C1101.31 177.385 1101.02 177.806 1100.42 178.171C1099.76 178.604 1098.91 178.82 1097.86 178.82ZM1083.78 153.186C1086.08 153.186 1088 152.24 1089.55 150.349C1091.13 148.457 1091.91 146.441 1091.91 144.299C1091.91 142.134 1091.13 140.118 1089.55 138.249C1088 136.381 1086.08 135.446 1083.78 135.446H1066.11V153.186H1083.78ZM1123.19 178.82C1118.01 178.82 1113.65 177.282 1110.1 174.206C1106.54 171.107 1104.76 166.88 1104.76 161.525C1104.76 156.079 1106.56 151.773 1110.16 148.605C1113.79 145.415 1118.23 143.82 1123.49 143.82C1128.51 143.82 1132.83 145.142 1136.45 147.785C1140.07 150.406 1141.88 154.336 1141.88 159.577C1141.88 161.035 1140.73 161.765 1138.43 161.765H1111.67C1111.71 165.137 1112.74 168.19 1114.74 170.925C1116.75 173.659 1119.57 175.026 1123.22 175.026C1125.84 175.026 1128.27 174.32 1130.5 172.907C1132.85 171.403 1134.12 169.626 1134.33 167.575C1134.44 166.39 1135.57 165.798 1137.71 165.798C1140.06 165.798 1141.23 166.424 1141.23 167.678C1141.23 168.316 1141.04 169.09 1140.65 170.002C1139.81 172.007 1138.2 173.785 1135.83 175.334C1132.28 177.658 1128.06 178.82 1123.19 178.82ZM1134.88 157.971C1134.15 151.066 1130.35 147.614 1123.49 147.614C1117.39 147.614 1113.58 151.066 1112.08 157.971H1134.88ZM1150.5 191.809C1148.17 191.809 1147.01 191.171 1147.01 189.895V145.7C1147.01 144.424 1148.17 143.786 1150.5 143.786C1152.8 143.786 1153.95 144.424 1153.95 145.7V147.785C1156.57 145.142 1160.09 143.82 1164.51 143.82C1176.18 143.82 1182.01 149.654 1182.01 161.32C1182.01 172.987 1176.18 178.82 1164.51 178.82C1160.11 178.82 1156.59 177.499 1153.95 174.855V189.895C1153.95 191.171 1152.8 191.809 1150.5 191.809ZM1164.51 174.992C1168.11 174.992 1170.76 173.477 1172.47 170.446C1174.21 167.416 1175.07 164.374 1175.07 161.32C1175.07 158.267 1174.21 155.225 1172.47 152.194C1170.76 149.164 1168.11 147.648 1164.51 147.648C1160.93 147.648 1158.28 149.164 1156.55 152.194C1154.81 155.225 1153.95 158.267 1153.95 161.32C1153.95 164.374 1154.81 167.416 1156.55 170.446C1158.28 173.477 1160.93 174.992 1164.51 174.992ZM1204.06 178.82C1198.72 178.82 1194.28 177.237 1190.73 174.069C1187.19 170.902 1185.43 166.652 1185.43 161.32C1185.43 155.988 1187.19 151.739 1190.73 148.571C1194.28 145.404 1198.72 143.82 1204.06 143.82C1209.39 143.82 1213.82 145.404 1217.35 148.571C1220.91 151.739 1222.68 155.988 1222.68 161.32C1222.68 166.652 1220.91 170.902 1217.35 174.069C1213.82 177.237 1209.39 178.82 1204.06 178.82ZM1204.06 175.026C1207.86 175.026 1210.75 173.591 1212.74 170.72C1214.74 167.826 1215.75 164.693 1215.75 161.32C1215.75 157.925 1214.74 154.792 1212.74 151.921C1210.75 149.05 1207.86 147.614 1204.06 147.614C1200.27 147.614 1197.38 149.05 1195.37 151.921C1193.37 154.792 1192.37 157.925 1192.37 161.32C1192.37 164.693 1193.37 167.826 1195.37 170.72C1197.38 173.591 1200.27 175.026 1204.06 175.026ZM1231.3 178.82C1228.97 178.82 1227.81 178.182 1227.81 176.906V145.734C1227.81 144.458 1228.97 143.82 1231.3 143.82C1233.6 143.82 1234.75 144.458 1234.75 145.734V147.819C1236.64 145.153 1239.4 143.82 1243.02 143.82C1245.78 143.82 1248.16 144.47 1250.16 145.769C1250.73 146.133 1251.02 146.566 1251.02 147.067C1251.02 147.705 1250.65 148.264 1249.92 148.742C1249.29 149.175 1248.58 149.392 1247.81 149.392C1247.08 149.392 1246.45 149.198 1245.93 148.811C1244.85 147.967 1243.66 147.546 1242.34 147.546C1239.69 147.546 1237.7 148.936 1236.36 151.716C1235.28 153.881 1234.75 156.797 1234.75 160.466V176.906C1234.75 178.182 1233.6 178.82 1231.3 178.82ZM1271.49 178.82C1263.81 178.775 1259.97 175.63 1259.97 169.387V147.648H1256.15C1253.84 147.648 1252.69 147.01 1252.69 145.734C1252.69 144.458 1253.84 143.82 1256.15 143.82H1259.97V132.712C1259.97 131.436 1261.14 130.798 1263.46 130.798C1265.78 130.798 1266.95 131.436 1266.95 132.712V143.82H1272.69C1275.01 143.82 1276.17 144.458 1276.17 145.734C1276.17 147.01 1275.01 147.648 1272.69 147.648H1266.95V169.387C1266.95 173.124 1268.47 174.992 1271.53 174.992C1272.16 174.992 1272.77 174.935 1273.34 174.821C1273.93 174.685 1274.52 174.616 1275.12 174.616C1277.51 174.616 1278.7 175.277 1278.7 176.599C1278.7 177.487 1277.75 178.103 1275.83 178.444C1274.33 178.695 1272.88 178.82 1271.49 178.82Z" fill="#F5F5F5"/>
<path d="M425.279 294.48C422.532 294.48 420.159 293.88 418.159 292.68C416.186 291.453 414.652 289.76 413.559 287.6C412.466 285.413 411.919 282.88 411.919 280C411.919 277.147 412.466 274.64 413.559 272.48C414.652 270.293 416.186 268.587 418.159 267.36C420.159 266.133 422.532 265.52 425.279 265.52C428.479 265.52 431.079 266.293 433.079 267.84C435.106 269.36 436.399 271.493 436.959 274.24H433.239C432.812 272.507 431.932 271.12 430.599 270.08C429.292 269.013 427.519 268.48 425.279 268.48C423.279 268.48 421.532 268.947 420.039 269.88C418.546 270.787 417.386 272.107 416.559 273.84C415.759 275.547 415.359 277.6 415.359 280C415.359 282.4 415.759 284.467 416.559 286.2C417.386 287.907 418.546 289.227 420.039 290.16C421.532 291.067 423.279 291.52 425.279 291.52C427.519 291.52 429.292 291.013 430.599 290C431.932 288.96 432.812 287.587 433.239 285.88H436.959C436.399 288.573 435.106 290.68 433.079 292.2C431.079 293.72 428.479 294.48 425.279 294.48ZM441.588 294V265.2H444.948V294H441.588ZM452.495 269.76C451.829 269.76 451.269 269.547 450.815 269.12C450.389 268.667 450.175 268.107 450.175 267.44C450.175 266.8 450.389 266.267 450.815 265.84C451.269 265.413 451.829 265.2 452.495 265.2C453.135 265.2 453.682 265.413 454.135 265.84C454.589 266.267 454.815 266.8 454.815 267.44C454.815 268.107 454.589 268.667 454.135 269.12C453.682 269.547 453.135 269.76 452.495 269.76ZM450.815 294V274.16H454.175V294H450.815ZM469.146 294.48C467.252 294.48 465.546 294.053 464.026 293.2C462.532 292.32 461.346 291.107 460.466 289.56C459.612 287.987 459.186 286.16 459.186 284.08C459.186 282 459.612 280.187 460.466 278.64C461.346 277.067 462.532 275.853 464.026 275C465.546 274.12 467.252 273.68 469.146 273.68C471.492 273.68 473.466 274.293 475.066 275.52C476.692 276.747 477.719 278.387 478.146 280.44H474.706C474.439 279.213 473.786 278.267 472.746 277.6C471.706 276.907 470.492 276.56 469.106 276.56C467.986 276.56 466.932 276.84 465.946 277.4C464.959 277.96 464.159 278.8 463.546 279.92C462.932 281.04 462.626 282.427 462.626 284.08C462.626 285.733 462.932 287.12 463.546 288.24C464.159 289.36 464.959 290.213 465.946 290.8C466.932 291.36 467.986 291.64 469.106 291.64C470.492 291.64 471.706 291.307 472.746 290.64C473.786 289.947 474.439 288.973 474.706 287.72H478.146C477.746 289.72 476.732 291.347 475.106 292.6C473.479 293.853 471.492 294.48 469.146 294.48ZM482.838 294V265.2H486.198V282.52L494.318 274.16H498.438L489.638 283.12L499.558 294H495.278L486.198 283.72V294H482.838ZM524.18 294.48C522.554 294.48 521.1 294.147 519.82 293.48C518.567 292.813 517.607 291.88 516.94 290.68L516.62 294H513.58V265.2H516.94V277.44C517.58 276.48 518.487 275.613 519.66 274.84C520.86 274.067 522.38 273.68 524.22 273.68C526.194 273.68 527.914 274.133 529.38 275.04C530.847 275.947 531.98 277.187 532.78 278.76C533.607 280.333 534.02 282.12 534.02 284.12C534.02 286.12 533.607 287.907 532.78 289.48C531.98 291.027 530.834 292.253 529.34 293.16C527.874 294.04 526.154 294.48 524.18 294.48ZM523.82 291.56C525.154 291.56 526.327 291.253 527.34 290.64C528.354 290 529.154 289.12 529.74 288C530.327 286.88 530.62 285.573 530.62 284.08C530.62 282.587 530.327 281.28 529.74 280.16C529.154 279.04 528.354 278.173 527.34 277.56C526.327 276.92 525.154 276.6 523.82 276.6C522.487 276.6 521.314 276.92 520.3 277.56C519.287 278.173 518.487 279.04 517.9 280.16C517.314 281.28 517.02 282.587 517.02 284.08C517.02 285.573 517.314 286.88 517.9 288C518.487 289.12 519.287 290 520.3 290.64C521.314 291.253 522.487 291.56 523.82 291.56ZM547.618 294.48C545.724 294.48 544.044 294.053 542.578 293.2C541.111 292.32 539.951 291.107 539.098 289.56C538.271 288.013 537.858 286.187 537.858 284.08C537.858 282 538.271 280.187 539.098 278.64C539.924 277.067 541.071 275.853 542.538 275C544.031 274.12 545.751 273.68 547.697 273.68C549.618 273.68 551.271 274.12 552.658 275C554.071 275.853 555.151 276.987 555.898 278.4C556.644 279.813 557.018 281.333 557.018 282.96C557.018 283.253 557.004 283.547 556.978 283.84C556.978 284.133 556.978 284.467 556.978 284.84H541.178C541.258 286.36 541.604 287.627 542.218 288.64C542.858 289.627 543.644 290.373 544.578 290.88C545.538 291.387 546.551 291.64 547.618 291.64C549.004 291.64 550.164 291.32 551.098 290.68C552.031 290.04 552.711 289.173 553.138 288.08H556.458C555.924 289.92 554.898 291.453 553.378 292.68C551.884 293.88 549.964 294.48 547.618 294.48ZM547.618 276.52C546.018 276.52 544.591 277.013 543.338 278C542.111 278.96 541.404 280.373 541.217 282.24H553.698C553.618 280.453 553.004 279.053 551.858 278.04C550.711 277.027 549.298 276.52 547.618 276.52ZM561.471 294V265.2H564.831V294H561.471ZM579.378 294.48C577.511 294.48 575.831 294.053 574.338 293.2C572.845 292.347 571.658 291.147 570.778 289.6C569.925 288.027 569.498 286.187 569.498 284.08C569.498 281.973 569.938 280.147 570.818 278.6C571.698 277.027 572.885 275.813 574.378 274.96C575.898 274.107 577.591 273.68 579.458 273.68C581.325 273.68 583.005 274.107 584.498 274.96C585.991 275.813 587.165 277.027 588.018 278.6C588.898 280.147 589.338 281.973 589.338 284.08C589.338 286.187 588.898 288.027 588.018 289.6C587.138 291.147 585.938 292.347 584.418 293.2C582.925 294.053 581.245 294.48 579.378 294.48ZM579.378 291.6C580.525 291.6 581.591 291.32 582.578 290.76C583.565 290.2 584.365 289.36 584.978 288.24C585.591 287.12 585.898 285.733 585.898 284.08C585.898 282.427 585.591 281.04 584.978 279.92C584.391 278.8 583.605 277.96 582.618 277.4C581.631 276.84 580.578 276.56 579.458 276.56C578.311 276.56 577.245 276.84 576.258 277.4C575.271 277.96 574.471 278.8 573.858 279.92C573.245 281.04 572.938 282.427 572.938 284.08C572.938 285.733 573.245 287.12 573.858 288.24C574.471 289.36 575.258 290.2 576.218 290.76C577.205 291.32 578.258 291.6 579.378 291.6ZM597.268 294L591.468 274.16H594.828L599.028 289.72L603.668 274.16H607.468L612.148 289.72L616.308 274.16H619.708L613.908 294H610.468L605.588 277.64L600.708 294H597.268ZM641.85 294C640.037 294 638.61 293.56 637.57 292.68C636.53 291.8 636.01 290.213 636.01 287.92V277H632.57V274.16H636.01L636.45 269.4H639.37V274.16H645.21V277H639.37V287.92C639.37 289.173 639.623 290.027 640.13 290.48C640.637 290.907 641.53 291.12 642.81 291.12H644.89V294H641.85ZM657.972 294.48C656.105 294.48 654.425 294.053 652.932 293.2C651.439 292.347 650.252 291.147 649.372 289.6C648.519 288.027 648.092 286.187 648.092 284.08C648.092 281.973 648.532 280.147 649.412 278.6C650.292 277.027 651.479 275.813 652.972 274.96C654.492 274.107 656.185 273.68 658.052 273.68C659.919 273.68 661.599 274.107 663.092 274.96C664.585 275.813 665.759 277.027 666.612 278.6C667.492 280.147 667.932 281.973 667.932 284.08C667.932 286.187 667.492 288.027 666.612 289.6C665.732 291.147 664.532 292.347 663.012 293.2C661.519 294.053 659.839 294.48 657.972 294.48ZM657.972 291.6C659.119 291.6 660.185 291.32 661.172 290.76C662.159 290.2 662.959 289.36 663.572 288.24C664.185 287.12 664.492 285.733 664.492 284.08C664.492 282.427 664.185 281.04 663.572 279.92C662.985 278.8 662.199 277.96 661.212 277.4C660.225 276.84 659.172 276.56 658.052 276.56C656.905 276.56 655.839 276.84 654.852 277.4C653.865 277.96 653.065 278.8 652.452 279.92C651.839 281.04 651.532 282.427 651.532 284.08C651.532 285.733 651.839 287.12 652.452 288.24C653.065 289.36 653.852 290.2 654.812 290.76C655.799 291.32 656.852 291.6 657.972 291.6ZM683.19 294V274.16H686.23L686.51 277.96C687.123 276.653 688.056 275.613 689.31 274.84C690.563 274.067 692.11 273.68 693.95 273.68V277.2H693.03C691.856 277.2 690.776 277.413 689.79 277.84C688.803 278.24 688.016 278.933 687.43 279.92C686.843 280.907 686.55 282.267 686.55 284V294H683.19ZM705.899 294.48C704.005 294.48 702.325 294.053 700.859 293.2C699.392 292.32 698.232 291.107 697.379 289.56C696.552 288.013 696.139 286.187 696.139 284.08C696.139 282 696.552 280.187 697.379 278.64C698.205 277.067 699.352 275.853 700.819 275C702.312 274.12 704.032 273.68 705.979 273.68C707.899 273.68 709.552 274.12 710.939 275C712.352 275.853 713.432 276.987 714.179 278.4C714.925 279.813 715.299 281.333 715.299 282.96C715.299 283.253 715.285 283.547 715.259 283.84C715.259 284.133 715.259 284.467 715.259 284.84H699.459C699.539 286.36 699.885 287.627 700.499 288.64C701.139 289.627 701.925 290.373 702.859 290.88C703.819 291.387 704.832 291.64 705.899 291.64C707.285 291.64 708.445 291.32 709.379 290.68C710.312 290.04 710.992 289.173 711.419 288.08H714.739C714.205 289.92 713.179 291.453 711.659 292.68C710.165 293.88 708.245 294.48 705.899 294.48ZM705.899 276.52C704.299 276.52 702.872 277.013 701.619 278C700.392 278.96 699.685 280.373 699.499 282.24H711.979C711.899 280.453 711.285 279.053 710.139 278.04C708.992 277.027 707.579 276.52 705.899 276.52ZM726.352 294.48C724.699 294.48 723.326 294.2 722.232 293.64C721.139 293.08 720.326 292.333 719.792 291.4C719.259 290.467 718.992 289.453 718.992 288.36C718.992 286.333 719.766 284.773 721.312 283.68C722.859 282.587 724.966 282.04 727.632 282.04H732.992V281.8C732.992 280.067 732.539 278.76 731.632 277.88C730.726 276.973 729.512 276.52 727.992 276.52C726.686 276.52 725.552 276.853 724.592 277.52C723.659 278.16 723.072 279.107 722.832 280.36H719.392C719.526 278.92 720.006 277.707 720.832 276.72C721.686 275.733 722.739 274.987 723.992 274.48C725.246 273.947 726.579 273.68 727.992 273.68C730.766 273.68 732.846 274.427 734.232 275.92C735.646 277.387 736.352 279.347 736.352 281.8V294H733.352L733.152 290.44C732.592 291.56 731.766 292.52 730.672 293.32C729.606 294.093 728.166 294.48 726.352 294.48ZM726.872 291.64C728.152 291.64 729.246 291.307 730.152 290.64C731.086 289.973 731.792 289.107 732.272 288.04C732.752 286.973 732.992 285.853 732.992 284.68V284.64H727.912C725.939 284.64 724.539 284.987 723.712 285.68C722.912 286.347 722.512 287.187 722.512 288.2C722.512 289.24 722.886 290.08 723.632 290.72C724.406 291.333 725.486 291.64 726.872 291.64ZM750.393 294.48C748.419 294.48 746.686 294.027 745.193 293.12C743.726 292.213 742.579 290.973 741.753 289.4C740.953 287.827 740.553 286.04 740.553 284.04C740.553 282.04 740.966 280.267 741.793 278.72C742.619 277.147 743.766 275.92 745.233 275.04C746.699 274.133 748.433 273.68 750.433 273.68C752.059 273.68 753.499 274.013 754.753 274.68C756.006 275.347 756.979 276.28 757.673 277.48V265.2H761.033V294H757.993L757.673 290.72C757.033 291.68 756.113 292.547 754.913 293.32C753.713 294.093 752.206 294.48 750.393 294.48ZM750.753 291.56C752.086 291.56 753.259 291.253 754.273 290.64C755.313 290 756.113 289.12 756.673 288C757.259 286.88 757.553 285.573 757.553 284.08C757.553 282.587 757.259 281.28 756.673 280.16C756.113 279.04 755.313 278.173 754.273 277.56C753.259 276.92 752.086 276.6 750.753 276.6C749.446 276.6 748.273 276.92 747.233 277.56C746.219 278.173 745.419 279.04 744.833 280.16C744.273 281.28 743.993 282.587 743.993 284.08C743.993 285.573 744.273 286.88 744.833 288C745.419 289.12 746.219 290 747.233 290.64C748.273 291.253 749.446 291.56 750.753 291.56ZM777.096 294V274.16H780.136L780.376 277.04C781.016 275.973 781.869 275.147 782.936 274.56C784.003 273.973 785.203 273.68 786.536 273.68C788.109 273.68 789.456 274 790.576 274.64C791.723 275.28 792.603 276.253 793.216 277.56C793.909 276.36 794.856 275.413 796.056 274.72C797.283 274.027 798.603 273.68 800.016 273.68C802.389 273.68 804.283 274.4 805.696 275.84C807.109 277.253 807.816 279.44 807.816 282.4V294H804.496V282.76C804.496 280.707 804.083 279.16 803.256 278.12C802.429 277.08 801.243 276.56 799.696 276.56C798.096 276.56 796.763 277.187 795.696 278.44C794.656 279.667 794.136 281.427 794.136 283.72V294H790.776V282.76C790.776 280.707 790.363 279.16 789.536 278.12C788.709 277.08 787.523 276.56 785.976 276.56C784.403 276.56 783.083 277.187 782.016 278.44C780.976 279.667 780.456 281.427 780.456 283.72V294H777.096ZM821.917 294.48C820.051 294.48 818.371 294.053 816.877 293.2C815.384 292.347 814.197 291.147 813.317 289.6C812.464 288.027 812.037 286.187 812.037 284.08C812.037 281.973 812.477 280.147 813.357 278.6C814.237 277.027 815.424 275.813 816.917 274.96C818.437 274.107 820.131 273.68 821.997 273.68C823.864 273.68 825.544 274.107 827.037 274.96C828.531 275.813 829.704 277.027 830.557 278.6C831.437 280.147 831.877 281.973 831.877 284.08C831.877 286.187 831.437 288.027 830.557 289.6C829.677 291.147 828.477 292.347 826.957 293.2C825.464 294.053 823.784 294.48 821.917 294.48ZM821.917 291.6C823.064 291.6 824.131 291.32 825.117 290.76C826.104 290.2 826.904 289.36 827.517 288.24C828.131 287.12 828.437 285.733 828.437 284.08C828.437 282.427 828.131 281.04 827.517 279.92C826.931 278.8 826.144 277.96 825.157 277.4C824.171 276.84 823.117 276.56 821.997 276.56C820.851 276.56 819.784 276.84 818.797 277.4C817.811 277.96 817.011 278.8 816.397 279.92C815.784 281.04 815.477 282.427 815.477 284.08C815.477 285.733 815.784 287.12 816.397 288.24C817.011 289.36 817.797 290.2 818.757 290.76C819.744 291.32 820.797 291.6 821.917 291.6ZM836.549 294V274.16H839.589L839.869 277.96C840.482 276.653 841.416 275.613 842.669 274.84C843.922 274.067 845.469 273.68 847.309 273.68V277.2H846.389C845.216 277.2 844.136 277.413 843.149 277.84C842.162 278.24 841.376 278.933 840.789 279.92C840.202 280.907 839.909 282.267 839.909 284V294H836.549ZM859.258 294.48C857.365 294.48 855.685 294.053 854.218 293.2C852.751 292.32 851.591 291.107 850.738 289.56C849.911 288.013 849.498 286.187 849.498 284.08C849.498 282 849.911 280.187 850.738 278.64C851.565 277.067 852.711 275.853 854.178 275C855.671 274.12 857.391 273.68 859.338 273.68C861.258 273.68 862.911 274.12 864.298 275C865.711 275.853 866.791 276.987 867.538 278.4C868.285 279.813 868.658 281.333 868.658 282.96C868.658 283.253 868.645 283.547 868.618 283.84C868.618 284.133 868.618 284.467 868.618 284.84H852.818C852.898 286.36 853.245 287.627 853.858 288.64C854.498 289.627 855.285 290.373 856.218 290.88C857.178 291.387 858.191 291.64 859.258 291.64C860.645 291.64 861.805 291.32 862.738 290.68C863.671 290.04 864.351 289.173 864.778 288.08H868.098C867.565 289.92 866.538 291.453 865.018 292.68C863.525 293.88 861.605 294.48 859.258 294.48ZM859.258 276.52C857.658 276.52 856.231 277.013 854.978 278C853.751 278.96 853.045 280.373 852.858 282.24H865.338C865.258 280.453 864.645 279.053 863.498 278.04C862.351 277.027 860.938 276.52 859.258 276.52ZM890.298 294.48C888.644 294.48 887.271 294.2 886.178 293.64C885.084 293.08 884.271 292.333 883.738 291.4C883.204 290.467 882.938 289.453 882.938 288.36C882.938 286.333 883.711 284.773 885.258 283.68C886.804 282.587 888.911 282.04 891.578 282.04H896.938V281.8C896.938 280.067 896.484 278.76 895.578 277.88C894.671 276.973 893.458 276.52 891.938 276.52C890.631 276.52 889.498 276.853 888.538 277.52C887.604 278.16 887.018 279.107 886.778 280.36H883.338C883.471 278.92 883.951 277.707 884.778 276.72C885.631 275.733 886.684 274.987 887.938 274.48C889.191 273.947 890.524 273.68 891.938 273.68C894.711 273.68 896.791 274.427 898.178 275.92C899.591 277.387 900.298 279.347 900.298 281.8V294H897.298L897.098 290.44C896.538 291.56 895.711 292.52 894.618 293.32C893.551 294.093 892.111 294.48 890.298 294.48ZM890.818 291.64C892.098 291.64 893.191 291.307 894.098 290.64C895.031 289.973 895.738 289.107 896.218 288.04C896.698 286.973 896.938 285.853 896.938 284.68V284.64H891.858C889.884 284.64 888.484 284.987 887.658 285.68C886.858 286.347 886.458 287.187 886.458 288.2C886.458 289.24 886.831 290.08 887.578 290.72C888.351 291.333 889.431 291.64 890.818 291.64ZM915.938 294.48C914.311 294.48 912.858 294.147 911.578 293.48C910.325 292.813 909.365 291.88 908.698 290.68L908.378 294H905.338V265.2H908.698V277.44C909.338 276.48 910.245 275.613 911.418 274.84C912.618 274.067 914.138 273.68 915.978 273.68C917.951 273.68 919.671 274.133 921.138 275.04C922.605 275.947 923.738 277.187 924.538 278.76C925.365 280.333 925.778 282.12 925.778 284.12C925.778 286.12 925.365 287.907 924.538 289.48C923.738 291.027 922.591 292.253 921.098 293.16C919.631 294.04 917.911 294.48 915.938 294.48ZM915.578 291.56C916.911 291.56 918.085 291.253 919.098 290.64C920.111 290 920.911 289.12 921.498 288C922.085 286.88 922.378 285.573 922.378 284.08C922.378 282.587 922.085 281.28 921.498 280.16C920.911 279.04 920.111 278.173 919.098 277.56C918.085 276.92 916.911 276.6 915.578 276.6C914.245 276.6 913.071 276.92 912.058 277.56C911.045 278.173 910.245 279.04 909.658 280.16C909.071 281.28 908.778 282.587 908.778 284.08C908.778 285.573 909.071 286.88 909.658 288C910.245 289.12 911.045 290 912.058 290.64C913.071 291.253 914.245 291.56 915.578 291.56ZM939.495 294.48C937.629 294.48 935.949 294.053 934.455 293.2C932.962 292.347 931.775 291.147 930.895 289.6C930.042 288.027 929.615 286.187 929.615 284.08C929.615 281.973 930.055 280.147 930.935 278.6C931.815 277.027 933.002 275.813 934.495 274.96C936.015 274.107 937.709 273.68 939.575 273.68C941.442 273.68 943.122 274.107 944.615 274.96C946.109 275.813 947.282 277.027 948.135 278.6C949.015 280.147 949.455 281.973 949.455 284.08C949.455 286.187 949.015 288.027 948.135 289.6C947.255 291.147 946.055 292.347 944.535 293.2C943.042 294.053 941.362 294.48 939.495 294.48ZM939.495 291.6C940.642 291.6 941.709 291.32 942.695 290.76C943.682 290.2 944.482 289.36 945.095 288.24C945.709 287.12 946.015 285.733 946.015 284.08C946.015 282.427 945.709 281.04 945.095 279.92C944.509 278.8 943.722 277.96 942.735 277.4C941.749 276.84 940.695 276.56 939.575 276.56C938.429 276.56 937.362 276.84 936.375 277.4C935.389 277.96 934.589 278.8 933.975 279.92C933.362 281.04 933.055 282.427 933.055 284.08C933.055 285.733 933.362 287.12 933.975 288.24C934.589 289.36 935.375 290.2 936.335 290.76C937.322 291.32 938.375 291.6 939.495 291.6ZM961.367 294.48C959.021 294.48 957.154 293.773 955.767 292.36C954.381 290.92 953.687 288.72 953.687 285.76V274.16H957.047V285.4C957.047 289.533 958.741 291.6 962.127 291.6C963.861 291.6 965.287 290.987 966.407 289.76C967.554 288.507 968.127 286.733 968.127 284.44V274.16H971.487V294H968.447L968.207 290.44C967.594 291.693 966.674 292.68 965.447 293.4C964.247 294.12 962.887 294.48 961.367 294.48ZM984.858 294C983.044 294 981.618 293.56 980.578 292.68C979.538 291.8 979.018 290.213 979.018 287.92V277H975.578V274.16H979.018L979.458 269.4H982.378V274.16H988.218V277H982.378V287.92C982.378 289.173 982.631 290.027 983.138 290.48C983.644 290.907 984.538 291.12 985.818 291.12H987.898V294H984.858ZM1003.27 294V266H1006.63V294H1003.27ZM1012.37 294V274.16H1015.41L1015.61 277.72C1016.25 276.467 1017.17 275.48 1018.37 274.76C1019.57 274.04 1020.93 273.68 1022.45 273.68C1024.8 273.68 1026.66 274.4 1028.05 275.84C1029.46 277.253 1030.17 279.44 1030.17 282.4V294H1026.81V282.76C1026.81 278.627 1025.1 276.56 1021.69 276.56C1019.98 276.56 1018.56 277.187 1017.41 278.44C1016.29 279.667 1015.73 281.427 1015.73 283.72V294H1012.37ZM1035.26 302.8V274.16H1038.3L1038.62 277.44C1039.26 276.48 1040.17 275.613 1041.34 274.84C1042.54 274.067 1044.06 273.68 1045.9 273.68C1047.87 273.68 1049.59 274.133 1051.06 275.04C1052.53 275.947 1053.66 277.187 1054.46 278.76C1055.29 280.333 1055.7 282.12 1055.7 284.12C1055.7 286.12 1055.29 287.907 1054.46 289.48C1053.66 291.027 1052.51 292.253 1051.02 293.16C1049.55 294.04 1047.83 294.48 1045.86 294.48C1044.23 294.48 1042.78 294.147 1041.5 293.48C1040.25 292.813 1039.29 291.88 1038.62 290.68V302.8H1035.26ZM1045.5 291.56C1046.83 291.56 1048.01 291.253 1049.02 290.64C1050.03 290 1050.83 289.12 1051.42 288C1052.01 286.88 1052.3 285.573 1052.3 284.08C1052.3 282.587 1052.01 281.28 1051.42 280.16C1050.83 279.04 1050.03 278.173 1049.02 277.56C1048.01 276.92 1046.83 276.6 1045.5 276.6C1044.17 276.6 1042.99 276.92 1041.98 277.56C1040.97 278.173 1040.17 279.04 1039.58 280.16C1038.99 281.28 1038.7 282.587 1038.7 284.08C1038.7 285.573 1038.99 286.88 1039.58 288C1040.17 289.12 1040.97 290 1041.98 290.64C1042.99 291.253 1044.17 291.56 1045.5 291.56ZM1066.98 294.48C1065.32 294.48 1063.95 294.2 1062.86 293.64C1061.76 293.08 1060.95 292.333 1060.42 291.4C1059.88 290.467 1059.62 289.453 1059.62 288.36C1059.62 286.333 1060.39 284.773 1061.94 283.68C1063.48 282.587 1065.59 282.04 1068.26 282.04H1073.62V281.8C1073.62 280.067 1073.16 278.76 1072.26 277.88C1071.35 276.973 1070.14 276.52 1068.62 276.52C1067.31 276.52 1066.18 276.853 1065.22 277.52C1064.28 278.16 1063.7 279.107 1063.46 280.36H1060.02C1060.15 278.92 1060.63 277.707 1061.46 276.72C1062.31 275.733 1063.36 274.987 1064.62 274.48C1065.87 273.947 1067.2 273.68 1068.62 273.68C1071.39 273.68 1073.47 274.427 1074.86 275.92C1076.27 277.387 1076.98 279.347 1076.98 281.8V294H1073.98L1073.78 290.44C1073.22 291.56 1072.39 292.52 1071.3 293.32C1070.23 294.093 1068.79 294.48 1066.98 294.48ZM1067.5 291.64C1068.78 291.64 1069.87 291.307 1070.78 290.64C1071.71 289.973 1072.42 289.107 1072.9 288.04C1073.38 286.973 1073.62 285.853 1073.62 284.68V284.64H1068.54C1066.56 284.64 1065.16 284.987 1064.34 285.68C1063.54 286.347 1063.14 287.187 1063.14 288.2C1063.14 289.24 1063.51 290.08 1064.26 290.72C1065.03 291.333 1066.11 291.64 1067.5 291.64ZM1083.59 302.8L1088.51 292.08H1087.35L1079.47 274.16H1083.11L1089.67 289.6L1096.63 274.16H1100.11L1087.11 302.8H1083.59ZM1102.22 274.92L1104.54 266H1108.3L1104.62 274.92H1102.22ZM1118.06 294.48C1115.68 294.48 1113.71 293.88 1112.14 292.68C1110.56 291.48 1109.64 289.853 1109.38 287.8H1112.82C1113.03 288.84 1113.58 289.747 1114.46 290.52C1115.36 291.267 1116.58 291.64 1118.1 291.64C1119.51 291.64 1120.55 291.347 1121.22 290.76C1121.88 290.147 1122.22 289.427 1122.22 288.6C1122.22 287.4 1121.78 286.6 1120.9 286.2C1120.04 285.8 1118.83 285.44 1117.26 285.12C1116.19 284.907 1115.12 284.6 1114.06 284.2C1112.99 283.8 1112.1 283.24 1111.38 282.52C1110.66 281.773 1110.3 280.8 1110.3 279.6C1110.3 277.867 1110.94 276.453 1112.22 275.36C1113.52 274.24 1115.28 273.68 1117.5 273.68C1119.6 273.68 1121.32 274.213 1122.66 275.28C1124.02 276.32 1124.8 277.813 1125.02 279.76H1121.7C1121.56 278.747 1121.12 277.96 1120.38 277.4C1119.66 276.813 1118.68 276.52 1117.46 276.52C1116.26 276.52 1115.32 276.773 1114.66 277.28C1114.02 277.787 1113.7 278.453 1113.7 279.28C1113.7 280.08 1114.11 280.707 1114.94 281.16C1115.79 281.613 1116.94 282 1118.38 282.32C1119.6 282.587 1120.76 282.92 1121.86 283.32C1122.98 283.693 1123.88 284.267 1124.58 285.04C1125.3 285.787 1125.66 286.88 1125.66 288.32C1125.68 290.107 1125 291.587 1123.62 292.76C1122.26 293.907 1120.4 294.48 1118.06 294.48ZM1143.08 269.76C1142.41 269.76 1141.85 269.547 1141.4 269.12C1140.97 268.667 1140.76 268.107 1140.76 267.44C1140.76 266.8 1140.97 266.267 1141.4 265.84C1141.85 265.413 1142.41 265.2 1143.08 265.2C1143.72 265.2 1144.27 265.413 1144.72 265.84C1145.17 266.267 1145.4 266.8 1145.4 267.44C1145.4 268.107 1145.17 268.667 1144.72 269.12C1144.27 269.547 1143.72 269.76 1143.08 269.76ZM1141.4 294V274.16H1144.76V294H1141.4ZM1150.61 294V274.16H1153.65L1153.89 277.04C1154.53 275.973 1155.38 275.147 1156.45 274.56C1157.52 273.973 1158.72 273.68 1160.05 273.68C1161.62 273.68 1162.97 274 1164.09 274.64C1165.24 275.28 1166.12 276.253 1166.73 277.56C1167.42 276.36 1168.37 275.413 1169.57 274.72C1170.8 274.027 1172.12 273.68 1173.53 273.68C1175.9 273.68 1177.8 274.4 1179.21 275.84C1180.62 277.253 1181.33 279.44 1181.33 282.4V294H1178.01V282.76C1178.01 280.707 1177.6 279.16 1176.77 278.12C1175.94 277.08 1174.76 276.56 1173.21 276.56C1171.61 276.56 1170.28 277.187 1169.21 278.44C1168.17 279.667 1167.65 281.427 1167.65 283.72V294H1164.29V282.76C1164.29 280.707 1163.88 279.16 1163.05 278.12C1162.22 277.08 1161.04 276.56 1159.49 276.56C1157.92 276.56 1156.6 277.187 1155.53 278.44C1154.49 279.667 1153.97 281.427 1153.97 283.72V294H1150.61ZM1186.39 302.8V274.16H1189.43L1189.75 277.44C1190.39 276.48 1191.3 275.613 1192.47 274.84C1193.67 274.067 1195.19 273.68 1197.03 273.68C1199.01 273.68 1200.73 274.133 1202.19 275.04C1203.66 275.947 1204.79 277.187 1205.59 278.76C1206.42 280.333 1206.83 282.12 1206.83 284.12C1206.83 286.12 1206.42 287.907 1205.59 289.48C1204.79 291.027 1203.65 292.253 1202.15 293.16C1200.69 294.04 1198.97 294.48 1196.99 294.48C1195.37 294.48 1193.91 294.147 1192.63 293.48C1191.38 292.813 1190.42 291.88 1189.75 290.68V302.8H1186.39ZM1196.63 291.56C1197.97 291.56 1199.14 291.253 1200.15 290.64C1201.17 290 1201.97 289.12 1202.55 288C1203.14 286.88 1203.43 285.573 1203.43 284.08C1203.43 282.587 1203.14 281.28 1202.55 280.16C1201.97 279.04 1201.17 278.173 1200.15 277.56C1199.14 276.92 1197.97 276.6 1196.63 276.6C1195.3 276.6 1194.13 276.92 1193.11 277.56C1192.1 278.173 1191.3 279.04 1190.71 280.16C1190.13 281.28 1189.83 282.587 1189.83 284.08C1189.83 285.573 1190.13 286.88 1190.71 288C1191.3 289.12 1192.1 290 1193.11 290.64C1194.13 291.253 1195.3 291.56 1196.63 291.56ZM1211.51 294V274.16H1214.55L1214.83 277.96C1215.44 276.653 1216.38 275.613 1217.63 274.84C1218.88 274.067 1220.43 273.68 1222.27 273.68V277.2H1221.35C1220.18 277.2 1219.1 277.413 1218.11 277.84C1217.12 278.24 1216.34 278.933 1215.75 279.92C1215.16 280.907 1214.87 282.267 1214.87 284V294H1211.51ZM1234.22 294.48C1232.33 294.48 1230.65 294.053 1229.18 293.2C1227.71 292.32 1226.55 291.107 1225.7 289.56C1224.87 288.013 1224.46 286.187 1224.46 284.08C1224.46 282 1224.87 280.187 1225.7 278.64C1226.53 277.067 1227.67 275.853 1229.14 275C1230.63 274.12 1232.35 273.68 1234.3 273.68C1236.22 273.68 1237.87 274.12 1239.26 275C1240.67 275.853 1241.75 276.987 1242.5 278.4C1243.25 279.813 1243.62 281.333 1243.62 282.96C1243.62 283.253 1243.61 283.547 1243.58 283.84C1243.58 284.133 1243.58 284.467 1243.58 284.84H1227.78C1227.86 286.36 1228.21 287.627 1228.82 288.64C1229.46 289.627 1230.25 290.373 1231.18 290.88C1232.14 291.387 1233.15 291.64 1234.22 291.64C1235.61 291.64 1236.77 291.32 1237.7 290.68C1238.63 290.04 1239.31 289.173 1239.74 288.08H1243.06C1242.53 289.92 1241.5 291.453 1239.98 292.68C1238.49 293.88 1236.57 294.48 1234.22 294.48ZM1234.22 276.52C1232.62 276.52 1231.19 277.013 1229.94 278C1228.71 278.96 1228.01 280.373 1227.82 282.24H1240.3C1240.22 280.453 1239.61 279.053 1238.46 278.04C1237.31 277.027 1235.9 276.52 1234.22 276.52ZM1255.67 294.48C1253.3 294.48 1251.33 293.88 1249.75 292.68C1248.18 291.48 1247.26 289.853 1246.99 287.8H1250.43C1250.65 288.84 1251.19 289.747 1252.07 290.52C1252.98 291.267 1254.19 291.64 1255.71 291.64C1257.13 291.64 1258.17 291.347 1258.83 290.76C1259.5 290.147 1259.83 289.427 1259.83 288.6C1259.83 287.4 1259.39 286.6 1258.51 286.2C1257.66 285.8 1256.45 285.44 1254.87 285.12C1253.81 284.907 1252.74 284.6 1251.67 284.2C1250.61 283.8 1249.71 283.24 1248.99 282.52C1248.27 281.773 1247.91 280.8 1247.91 279.6C1247.91 277.867 1248.55 276.453 1249.83 275.36C1251.14 274.24 1252.9 273.68 1255.11 273.68C1257.22 273.68 1258.94 274.213 1260.27 275.28C1261.63 276.32 1262.42 277.813 1262.63 279.76H1259.31C1259.18 278.747 1258.74 277.96 1257.99 277.4C1257.27 276.813 1256.3 276.52 1255.07 276.52C1253.87 276.52 1252.94 276.773 1252.27 277.28C1251.63 277.787 1251.31 278.453 1251.31 279.28C1251.31 280.08 1251.73 280.707 1252.55 281.16C1253.41 281.613 1254.55 282 1255.99 282.32C1257.22 282.587 1258.38 282.92 1259.47 283.32C1260.59 283.693 1261.5 284.267 1262.19 285.04C1262.91 285.787 1263.27 286.88 1263.27 288.32C1263.3 290.107 1262.62 291.587 1261.23 292.76C1259.87 293.907 1258.02 294.48 1255.67 294.48ZM1275.67 294.48C1273.3 294.48 1271.33 293.88 1269.75 292.68C1268.18 291.48 1267.26 289.853 1266.99 287.8H1270.43C1270.65 288.84 1271.19 289.747 1272.07 290.52C1272.98 291.267 1274.19 291.64 1275.71 291.64C1277.13 291.64 1278.17 291.347 1278.83 290.76C1279.5 290.147 1279.83 289.427 1279.83 288.6C1279.83 287.4 1279.39 286.6 1278.51 286.2C1277.66 285.8 1276.45 285.44 1274.87 285.12C1273.81 284.907 1272.74 284.6 1271.67 284.2C1270.61 283.8 1269.71 283.24 1268.99 282.52C1268.27 281.773 1267.91 280.8 1267.91 279.6C1267.91 277.867 1268.55 276.453 1269.83 275.36C1271.14 274.24 1272.9 273.68 1275.11 273.68C1277.22 273.68 1278.94 274.213 1280.27 275.28C1281.63 276.32 1282.42 277.813 1282.63 279.76H1279.31C1279.18 278.747 1278.74 277.96 1277.99 277.4C1277.27 276.813 1276.3 276.52 1275.07 276.52C1273.87 276.52 1272.94 276.773 1272.27 277.28C1271.63 277.787 1271.31 278.453 1271.31 279.28C1271.31 280.08 1271.73 280.707 1272.55 281.16C1273.41 281.613 1274.55 282 1275.99 282.32C1277.22 282.587 1278.38 282.92 1279.47 283.32C1280.59 283.693 1281.5 284.267 1282.19 285.04C1282.91 285.787 1283.27 286.88 1283.27 288.32C1283.3 290.107 1282.62 291.587 1281.23 292.76C1279.87 293.907 1278.02 294.48 1275.67 294.48ZM1290.11 269.76C1289.45 269.76 1288.89 269.547 1288.43 269.12C1288.01 268.667 1287.79 268.107 1287.79 267.44C1287.79 266.8 1288.01 266.267 1288.43 265.84C1288.89 265.413 1289.45 265.2 1290.11 265.2C1290.75 265.2 1291.3 265.413 1291.75 265.84C1292.21 266.267 1292.43 266.8 1292.43 267.44C1292.43 268.107 1292.21 268.667 1291.75 269.12C1291.3 269.547 1290.75 269.76 1290.11 269.76ZM1288.43 294V274.16H1291.79V294H1288.43ZM1303.36 294L1295.84 274.16H1299.36L1305.32 290.76L1311.32 274.16H1314.76L1307.24 294H1303.36ZM1326.41 294.48C1324.51 294.48 1322.83 294.053 1321.37 293.2C1319.9 292.32 1318.74 291.107 1317.89 289.56C1317.06 288.013 1316.65 286.187 1316.65 284.08C1316.65 282 1317.06 280.187 1317.89 278.64C1318.71 277.067 1319.86 275.853 1321.33 275C1322.82 274.12 1324.54 273.68 1326.49 273.68C1328.41 273.68 1330.06 274.12 1331.45 275C1332.86 275.853 1333.94 276.987 1334.69 278.4C1335.43 279.813 1335.81 281.333 1335.81 282.96C1335.81 283.253 1335.79 283.547 1335.77 283.84C1335.77 284.133 1335.77 284.467 1335.77 284.84H1319.97C1320.05 286.36 1320.39 287.627 1321.01 288.64C1321.65 289.627 1322.43 290.373 1323.37 290.88C1324.33 291.387 1325.34 291.64 1326.41 291.64C1327.79 291.64 1328.95 291.32 1329.89 290.68C1330.82 290.04 1331.5 289.173 1331.93 288.08H1335.25C1334.71 289.92 1333.69 291.453 1332.17 292.68C1330.67 293.88 1328.75 294.48 1326.41 294.48ZM1326.41 276.52C1324.81 276.52 1323.38 277.013 1322.13 278C1320.9 278.96 1320.19 280.373 1320.01 282.24H1332.49C1332.41 280.453 1331.79 279.053 1330.65 278.04C1329.5 277.027 1328.09 276.52 1326.41 276.52ZM1353.01 302.8L1357.93 292.08H1356.77L1348.89 274.16H1352.53L1359.09 289.6L1366.05 274.16H1369.53L1356.53 302.8H1353.01ZM1380.12 294.48C1378.22 294.48 1376.54 294.053 1375.08 293.2C1373.61 292.32 1372.45 291.107 1371.6 289.56C1370.77 288.013 1370.36 286.187 1370.36 284.08C1370.36 282 1370.77 280.187 1371.6 278.64C1372.42 277.067 1373.57 275.853 1375.04 275C1376.53 274.12 1378.25 273.68 1380.2 273.68C1382.12 273.68 1383.77 274.12 1385.16 275C1386.57 275.853 1387.65 276.987 1388.4 278.4C1389.14 279.813 1389.52 281.333 1389.52 282.96C1389.52 283.253 1389.5 283.547 1389.48 283.84C1389.48 284.133 1389.48 284.467 1389.48 284.84H1373.68C1373.76 286.36 1374.1 287.627 1374.72 288.64C1375.36 289.627 1376.14 290.373 1377.08 290.88C1378.04 291.387 1379.05 291.64 1380.12 291.64C1381.5 291.64 1382.66 291.32 1383.6 290.68C1384.53 290.04 1385.21 289.173 1385.64 288.08H1388.96C1388.42 289.92 1387.4 291.453 1385.88 292.68C1384.38 293.88 1382.46 294.48 1380.12 294.48ZM1380.12 276.52C1378.52 276.52 1377.09 277.013 1375.84 278C1374.61 278.96 1373.9 280.373 1373.72 282.24H1386.2C1386.12 280.453 1385.5 279.053 1384.36 278.04C1383.21 277.027 1381.8 276.52 1380.12 276.52ZM1400.57 294.48C1398.92 294.48 1397.54 294.2 1396.45 293.64C1395.36 293.08 1394.54 292.333 1394.01 291.4C1393.48 290.467 1393.21 289.453 1393.21 288.36C1393.21 286.333 1393.98 284.773 1395.53 283.68C1397.08 282.587 1399.18 282.04 1401.85 282.04H1407.21V281.8C1407.21 280.067 1406.76 278.76 1405.85 277.88C1404.94 276.973 1403.73 276.52 1402.21 276.52C1400.9 276.52 1399.77 276.853 1398.81 277.52C1397.88 278.16 1397.29 279.107 1397.05 280.36H1393.61C1393.74 278.92 1394.22 277.707 1395.05 276.72C1395.9 275.733 1396.96 274.987 1398.21 274.48C1399.46 273.947 1400.8 273.68 1402.21 273.68C1404.98 273.68 1407.06 274.427 1408.45 275.92C1409.86 277.387 1410.57 279.347 1410.57 281.8V294H1407.57L1407.37 290.44C1406.81 291.56 1405.98 292.52 1404.89 293.32C1403.82 294.093 1402.38 294.48 1400.57 294.48ZM1401.09 291.64C1402.37 291.64 1403.46 291.307 1404.37 290.64C1405.3 289.973 1406.01 289.107 1406.49 288.04C1406.97 286.973 1407.21 285.853 1407.21 284.68V284.64H1402.13C1400.16 284.64 1398.76 284.987 1397.93 285.68C1397.13 286.347 1396.73 287.187 1396.73 288.2C1396.73 289.24 1397.1 290.08 1397.85 290.72C1398.62 291.333 1399.7 291.64 1401.09 291.64ZM1415.61 294V274.16H1418.65L1418.93 277.96C1419.54 276.653 1420.48 275.613 1421.73 274.84C1422.98 274.067 1424.53 273.68 1426.37 273.68V277.2H1425.45C1424.28 277.2 1423.2 277.413 1422.21 277.84C1421.22 278.24 1420.44 278.933 1419.85 279.92C1419.26 280.907 1418.97 282.267 1418.97 284V294H1415.61ZM1429.74 283.8V280.96H1445.58V283.8H1429.74ZM1459.69 294.48C1457.82 294.48 1456.14 294.053 1454.65 293.2C1453.16 292.347 1451.97 291.147 1451.09 289.6C1450.24 288.027 1449.81 286.187 1449.81 284.08C1449.81 281.973 1450.25 280.147 1451.13 278.6C1452.01 277.027 1453.2 275.813 1454.69 274.96C1456.21 274.107 1457.9 273.68 1459.77 273.68C1461.64 273.68 1463.32 274.107 1464.81 274.96C1466.3 275.813 1467.48 277.027 1468.33 278.6C1469.21 280.147 1469.65 281.973 1469.65 284.08C1469.65 286.187 1469.21 288.027 1468.33 289.6C1467.45 291.147 1466.25 292.347 1464.73 293.2C1463.24 294.053 1461.56 294.48 1459.69 294.48ZM1459.69 291.6C1460.84 291.6 1461.9 291.32 1462.89 290.76C1463.88 290.2 1464.68 289.36 1465.29 288.24C1465.9 287.12 1466.21 285.733 1466.21 284.08C1466.21 282.427 1465.9 281.04 1465.29 279.92C1464.7 278.8 1463.92 277.96 1462.93 277.4C1461.94 276.84 1460.89 276.56 1459.77 276.56C1458.62 276.56 1457.56 276.84 1456.57 277.4C1455.58 277.96 1454.78 278.8 1454.17 279.92C1453.56 281.04 1453.25 282.427 1453.25 284.08C1453.25 285.733 1453.56 287.12 1454.17 288.24C1454.78 289.36 1455.57 290.2 1456.53 290.76C1457.52 291.32 1458.57 291.6 1459.69 291.6ZM1474.32 294V274.16H1477.36L1477.56 277.72C1478.2 276.467 1479.12 275.48 1480.32 274.76C1481.52 274.04 1482.88 273.68 1484.4 273.68C1486.75 273.68 1488.62 274.4 1490 275.84C1491.42 277.253 1492.12 279.44 1492.12 282.4V294H1488.76V282.76C1488.76 278.627 1487.06 276.56 1483.64 276.56C1481.94 276.56 1480.51 277.187 1479.36 278.44C1478.24 279.667 1477.68 281.427 1477.68 283.72V294H1474.32ZM1496.81 283.8V280.96H1512.65V283.8H1496.81ZM563.631 349.8L568.551 339.08H567.391L559.511 321.16H563.151L569.711 336.6L576.671 321.16H580.151L567.151 349.8H563.631ZM590.743 341.48C588.849 341.48 587.169 341.053 585.703 340.2C584.236 339.32 583.076 338.107 582.223 336.56C581.396 335.013 580.983 333.187 580.983 331.08C580.983 329 581.396 327.187 582.223 325.64C583.049 324.067 584.196 322.853 585.663 322C587.156 321.12 588.876 320.68 590.822 320.68C592.743 320.68 594.396 321.12 595.783 322C597.196 322.853 598.276 323.987 599.023 325.4C599.769 326.813 600.143 328.333 600.143 329.96C600.143 330.253 600.129 330.547 600.103 330.84C600.103 331.133 600.103 331.467 600.103 331.84H584.303C584.383 333.36 584.729 334.627 585.343 335.64C585.983 336.627 586.769 337.373 587.703 337.88C588.663 338.387 589.676 338.64 590.743 338.64C592.129 338.64 593.289 338.32 594.223 337.68C595.156 337.04 595.836 336.173 596.263 335.08H599.583C599.049 336.92 598.023 338.453 596.503 339.68C595.009 340.88 593.089 341.48 590.743 341.48ZM590.743 323.52C589.143 323.52 587.716 324.013 586.463 325C585.236 325.96 584.529 327.373 584.342 329.24H596.823C596.743 327.453 596.129 326.053 594.983 325.04C593.836 324.027 592.423 323.52 590.743 323.52ZM611.196 341.48C609.543 341.48 608.169 341.2 607.076 340.64C605.983 340.08 605.169 339.333 604.636 338.4C604.103 337.467 603.836 336.453 603.836 335.36C603.836 333.333 604.609 331.773 606.156 330.68C607.703 329.587 609.809 329.04 612.476 329.04H617.836V328.8C617.836 327.067 617.383 325.76 616.476 324.88C615.569 323.973 614.356 323.52 612.836 323.52C611.529 323.52 610.396 323.853 609.436 324.52C608.503 325.16 607.916 326.107 607.676 327.36H604.236C604.369 325.92 604.849 324.707 605.676 323.72C606.529 322.733 607.583 321.987 608.836 321.48C610.089 320.947 611.423 320.68 612.836 320.68C615.609 320.68 617.689 321.427 619.076 322.92C620.489 324.387 621.196 326.347 621.196 328.8V341H618.196L617.996 337.44C617.436 338.56 616.609 339.52 615.516 340.32C614.449 341.093 613.009 341.48 611.196 341.48ZM611.716 338.64C612.996 338.64 614.089 338.307 614.996 337.64C615.929 336.973 616.636 336.107 617.116 335.04C617.596 333.973 617.836 332.853 617.836 331.68V331.64H612.756C610.783 331.64 609.383 331.987 608.556 332.68C607.756 333.347 607.356 334.187 607.356 335.2C607.356 336.24 607.729 337.08 608.476 337.72C609.249 338.333 610.329 338.64 611.716 338.64ZM626.237 341V321.16H629.277L629.557 324.96C630.17 323.653 631.103 322.613 632.357 321.84C633.61 321.067 635.157 320.68 636.997 320.68V324.2H636.077C634.903 324.2 633.823 324.413 632.837 324.84C631.85 325.24 631.063 325.933 630.477 326.92C629.89 327.907 629.597 329.267 629.597 331V341H626.237ZM659.194 334.76C658.074 334.76 657.047 334.613 656.114 334.32L654.114 336.2C654.407 336.413 654.767 336.6 655.194 336.76C655.647 336.893 656.287 337.027 657.114 337.16C657.94 337.267 659.1 337.387 660.594 337.52C663.26 337.707 665.167 338.32 666.314 339.36C667.46 340.4 668.034 341.76 668.034 343.44C668.034 344.587 667.714 345.68 667.074 346.72C666.46 347.76 665.5 348.613 664.194 349.28C662.914 349.947 661.26 350.28 659.234 350.28C657.447 350.28 655.86 350.04 654.474 349.56C653.087 349.107 652.007 348.4 651.234 347.44C650.46 346.507 650.074 345.32 650.074 343.88C650.074 343.133 650.274 342.32 650.674 341.44C651.074 340.587 651.82 339.773 652.914 339C652.327 338.76 651.82 338.507 651.394 338.24C650.994 337.947 650.62 337.627 650.274 337.28V336.36L653.674 333C652.1 331.667 651.314 329.907 651.314 327.72C651.314 326.413 651.62 325.227 652.234 324.16C652.847 323.093 653.74 322.253 654.914 321.64C656.087 321 657.514 320.68 659.194 320.68C660.34 320.68 661.38 320.84 662.314 321.16H669.634V323.68L665.914 323.84C666.687 324.96 667.074 326.253 667.074 327.72C667.074 329.027 666.754 330.213 666.114 331.28C665.5 332.347 664.607 333.2 663.434 333.84C662.287 334.453 660.874 334.76 659.194 334.76ZM659.194 332C660.607 332 661.727 331.64 662.554 330.92C663.407 330.173 663.834 329.107 663.834 327.72C663.834 326.36 663.407 325.32 662.554 324.6C661.727 323.853 660.607 323.48 659.194 323.48C657.754 323.48 656.607 323.853 655.754 324.6C654.927 325.32 654.514 326.36 654.514 327.72C654.514 329.107 654.927 330.173 655.754 330.92C656.607 331.64 657.754 332 659.194 332ZM653.354 343.56C653.354 344.893 653.914 345.88 655.034 346.52C656.154 347.187 657.554 347.52 659.234 347.52C660.887 347.52 662.207 347.16 663.194 346.44C664.207 345.72 664.714 344.76 664.714 343.56C664.714 342.707 664.367 341.96 663.674 341.32C662.98 340.707 661.7 340.347 659.834 340.24C658.367 340.133 657.1 340 656.034 339.84C654.94 340.427 654.22 341.053 653.874 341.72C653.527 342.413 653.354 343.027 653.354 343.56ZM673.424 341V321.16H676.464L676.744 324.96C677.357 323.653 678.291 322.613 679.544 321.84C680.797 321.067 682.344 320.68 684.184 320.68V324.2H683.264C682.091 324.2 681.011 324.413 680.024 324.84C679.037 325.24 678.251 325.933 677.664 326.92C677.077 327.907 676.784 329.267 676.784 331V341H673.424ZM696.253 341.48C694.386 341.48 692.706 341.053 691.213 340.2C689.72 339.347 688.533 338.147 687.653 336.6C686.8 335.027 686.373 333.187 686.373 331.08C686.373 328.973 686.813 327.147 687.693 325.6C688.573 324.027 689.76 322.813 691.253 321.96C692.773 321.107 694.466 320.68 696.333 320.68C698.2 320.68 699.88 321.107 701.373 321.96C702.866 322.813 704.04 324.027 704.893 325.6C705.773 327.147 706.213 328.973 706.213 331.08C706.213 333.187 705.773 335.027 704.893 336.6C704.013 338.147 702.813 339.347 701.293 340.2C699.8 341.053 698.12 341.48 696.253 341.48ZM696.253 338.6C697.4 338.6 698.466 338.32 699.453 337.76C700.44 337.2 701.24 336.36 701.853 335.24C702.466 334.12 702.773 332.733 702.773 331.08C702.773 329.427 702.466 328.04 701.853 326.92C701.266 325.8 700.48 324.96 699.493 324.4C698.506 323.84 697.453 323.56 696.333 323.56C695.186 323.56 694.12 323.84 693.133 324.4C692.146 324.96 691.346 325.8 690.733 326.92C690.12 328.04 689.813 329.427 689.813 331.08C689.813 332.733 690.12 334.12 690.733 335.24C691.346 336.36 692.133 337.2 693.093 337.76C694.08 338.32 695.133 338.6 696.253 338.6ZM714.143 341L708.343 321.16H711.703L715.903 336.72L720.543 321.16H724.343L729.023 336.72L733.183 321.16H736.583L730.783 341H727.343L722.463 324.64L717.583 341H714.143ZM748.139 341C746.326 341 744.899 340.56 743.859 339.68C742.819 338.8 742.299 337.213 742.299 334.92V324H738.859V321.16H742.299L742.739 316.4H745.659V321.16H751.499V324H745.659V334.92C745.659 336.173 745.912 337.027 746.419 337.48C746.926 337.907 747.819 338.12 749.099 338.12H751.179V341H748.139ZM755.768 341V312.2H759.128V324.56C759.794 323.333 760.741 322.387 761.968 321.72C763.194 321.027 764.528 320.68 765.968 320.68C768.261 320.68 770.101 321.4 771.488 322.84C772.874 324.253 773.568 326.44 773.568 329.4V341H770.248V329.76C770.248 325.627 768.581 323.56 765.248 323.56C763.514 323.56 762.061 324.187 760.888 325.44C759.714 326.667 759.128 328.427 759.128 330.72V341H755.768ZM795.844 341.48C794.191 341.48 792.818 341.2 791.724 340.64C790.631 340.08 789.818 339.333 789.284 338.4C788.751 337.467 788.484 336.453 788.484 335.36C788.484 333.333 789.258 331.773 790.804 330.68C792.351 329.587 794.458 329.04 797.124 329.04H802.484V328.8C802.484 327.067 802.031 325.76 801.124 324.88C800.218 323.973 799.004 323.52 797.484 323.52C796.178 323.52 795.044 323.853 794.084 324.52C793.151 325.16 792.564 326.107 792.324 327.36H788.884C789.018 325.92 789.498 324.707 790.324 323.72C791.178 322.733 792.231 321.987 793.484 321.48C794.738 320.947 796.071 320.68 797.484 320.68C800.258 320.68 802.338 321.427 803.724 322.92C805.138 324.387 805.844 326.347 805.844 328.8V341H802.844L802.644 337.44C802.084 338.56 801.258 339.52 800.164 340.32C799.098 341.093 797.658 341.48 795.844 341.48ZM796.364 338.64C797.644 338.64 798.738 338.307 799.644 337.64C800.578 336.973 801.284 336.107 801.764 335.04C802.244 333.973 802.484 332.853 802.484 331.68V331.64H797.404C795.431 331.64 794.031 331.987 793.204 332.68C792.404 333.347 792.004 334.187 792.004 335.2C792.004 336.24 792.378 337.08 793.124 337.72C793.898 338.333 794.978 338.64 796.364 338.64ZM810.885 341V321.16H813.925L814.125 324.72C814.765 323.467 815.685 322.48 816.885 321.76C818.085 321.04 819.445 320.68 820.965 320.68C823.312 320.68 825.178 321.4 826.565 322.84C827.978 324.253 828.685 326.44 828.685 329.4V341H825.325V329.76C825.325 325.627 823.618 323.56 820.205 323.56C818.498 323.56 817.072 324.187 815.925 325.44C814.805 326.667 814.245 328.427 814.245 330.72V341H810.885ZM842.776 341.48C840.802 341.48 839.069 341.027 837.576 340.12C836.109 339.213 834.962 337.973 834.136 336.4C833.336 334.827 832.936 333.04 832.936 331.04C832.936 329.04 833.349 327.267 834.176 325.72C835.002 324.147 836.149 322.92 837.616 322.04C839.082 321.133 840.816 320.68 842.816 320.68C844.442 320.68 845.882 321.013 847.136 321.68C848.389 322.347 849.362 323.28 850.056 324.48V312.2H853.416V341H850.376L850.056 337.72C849.416 338.68 848.496 339.547 847.296 340.32C846.096 341.093 844.589 341.48 842.776 341.48ZM843.136 338.56C844.469 338.56 845.642 338.253 846.656 337.64C847.696 337 848.496 336.12 849.056 335C849.642 333.88 849.936 332.573 849.936 331.08C849.936 329.587 849.642 328.28 849.056 327.16C848.496 326.04 847.696 325.173 846.656 324.56C845.642 323.92 844.469 323.6 843.136 323.6C841.829 323.6 840.656 323.92 839.616 324.56C838.602 325.173 837.802 326.04 837.216 327.16C836.656 328.28 836.376 329.587 836.376 331.08C836.376 332.573 836.656 333.88 837.216 335C837.802 336.12 838.602 337 839.616 337.64C840.656 338.253 841.829 338.56 843.136 338.56ZM877.319 341C875.505 341 874.079 340.56 873.039 339.68C871.999 338.8 871.479 337.213 871.479 334.92V324H868.039V321.16H871.479L871.919 316.4H874.839V321.16H880.679V324H874.839V334.92C874.839 336.173 875.092 337.027 875.599 337.48C876.105 337.907 876.999 338.12 878.279 338.12H880.359V341H877.319ZM893.441 341.48C891.574 341.48 889.894 341.053 888.401 340.2C886.907 339.347 885.721 338.147 884.841 336.6C883.987 335.027 883.561 333.187 883.561 331.08C883.561 328.973 884.001 327.147 884.881 325.6C885.761 324.027 886.947 322.813 888.441 321.96C889.961 321.107 891.654 320.68 893.521 320.68C895.387 320.68 897.067 321.107 898.561 321.96C900.054 322.813 901.227 324.027 902.081 325.6C902.961 327.147 903.401 328.973 903.401 331.08C903.401 333.187 902.961 335.027 902.081 336.6C901.201 338.147 900.001 339.347 898.481 340.2C896.987 341.053 895.307 341.48 893.441 341.48ZM893.441 338.6C894.587 338.6 895.654 338.32 896.641 337.76C897.627 337.2 898.427 336.36 899.041 335.24C899.654 334.12 899.961 332.733 899.961 331.08C899.961 329.427 899.654 328.04 899.041 326.92C898.454 325.8 897.667 324.96 896.681 324.4C895.694 323.84 894.641 323.56 893.521 323.56C892.374 323.56 891.307 323.84 890.321 324.4C889.334 324.96 888.534 325.8 887.921 326.92C887.307 328.04 887.001 329.427 887.001 331.08C887.001 332.733 887.307 334.12 887.921 335.24C888.534 336.36 889.321 337.2 890.281 337.76C891.267 338.32 892.321 338.6 893.441 338.6ZM927.658 341.48C925.685 341.48 923.952 341.027 922.458 340.12C920.992 339.213 919.845 337.973 919.018 336.4C918.218 334.827 917.818 333.04 917.818 331.04C917.818 329.04 918.232 327.267 919.058 325.72C919.885 324.147 921.032 322.92 922.498 322.04C923.965 321.133 925.698 320.68 927.698 320.68C929.325 320.68 930.765 321.013 932.018 321.68C933.272 322.347 934.245 323.28 934.938 324.48V312.2H938.298V341H935.258L934.938 337.72C934.298 338.68 933.378 339.547 932.178 340.32C930.978 341.093 929.472 341.48 927.658 341.48ZM928.018 338.56C929.352 338.56 930.525 338.253 931.538 337.64C932.578 337 933.378 336.12 933.938 335C934.525 333.88 934.818 332.573 934.818 331.08C934.818 329.587 934.525 328.28 933.938 327.16C933.378 326.04 932.578 325.173 931.538 324.56C930.525 323.92 929.352 323.6 928.018 323.6C926.712 323.6 925.538 323.92 924.498 324.56C923.485 325.173 922.685 326.04 922.098 327.16C921.538 328.28 921.258 329.587 921.258 331.08C921.258 332.573 921.538 333.88 922.098 335C922.685 336.12 923.485 337 924.498 337.64C925.538 338.253 926.712 338.56 928.018 338.56ZM952.816 341.48C950.949 341.48 949.269 341.053 947.776 340.2C946.282 339.347 945.096 338.147 944.216 336.6C943.362 335.027 942.936 333.187 942.936 331.08C942.936 328.973 943.376 327.147 944.256 325.6C945.136 324.027 946.322 322.813 947.816 321.96C949.336 321.107 951.029 320.68 952.896 320.68C954.762 320.68 956.442 321.107 957.936 321.96C959.429 322.813 960.602 324.027 961.456 325.6C962.336 327.147 962.776 328.973 962.776 331.08C962.776 333.187 962.336 335.027 961.456 336.6C960.576 338.147 959.376 339.347 957.856 340.2C956.362 341.053 954.682 341.48 952.816 341.48ZM952.816 338.6C953.962 338.6 955.029 338.32 956.016 337.76C957.002 337.2 957.802 336.36 958.416 335.24C959.029 334.12 959.336 332.733 959.336 331.08C959.336 329.427 959.029 328.04 958.416 326.92C957.829 325.8 957.042 324.96 956.056 324.4C955.069 323.84 954.016 323.56 952.896 323.56C951.749 323.56 950.682 323.84 949.696 324.4C948.709 324.96 947.909 325.8 947.296 326.92C946.682 328.04 946.376 329.427 946.376 331.08C946.376 332.733 946.682 334.12 947.296 335.24C947.909 336.36 948.696 337.2 949.656 337.76C950.642 338.32 951.696 338.6 952.816 338.6ZM970.705 341L964.905 321.16H968.265L972.465 336.72L977.105 321.16H980.905L985.585 336.72L989.745 321.16H993.145L987.345 341H983.905L979.025 324.64L974.145 341H970.705ZM996.862 341V321.16H999.902L1000.1 324.72C1000.74 323.467 1001.66 322.48 1002.86 321.76C1004.06 321.04 1005.42 320.68 1006.94 320.68C1009.29 320.68 1011.15 321.4 1012.54 322.84C1013.95 324.253 1014.66 326.44 1014.66 329.4V341H1011.3V329.76C1011.3 325.627 1009.59 323.56 1006.18 323.56C1004.47 323.56 1003.05 324.187 1001.9 325.44C1000.78 326.667 1000.22 328.427 1000.22 330.72V341H996.862ZM1019.75 341V312.2H1023.11V341H1019.75ZM1037.66 341.48C1035.79 341.48 1034.11 341.053 1032.62 340.2C1031.13 339.347 1029.94 338.147 1029.06 336.6C1028.21 335.027 1027.78 333.187 1027.78 331.08C1027.78 328.973 1028.22 327.147 1029.1 325.6C1029.98 324.027 1031.17 322.813 1032.66 321.96C1034.18 321.107 1035.87 320.68 1037.74 320.68C1039.61 320.68 1041.29 321.107 1042.78 321.96C1044.27 322.813 1045.45 324.027 1046.3 325.6C1047.18 327.147 1047.62 328.973 1047.62 331.08C1047.62 333.187 1047.18 335.027 1046.3 336.6C1045.42 338.147 1044.22 339.347 1042.7 340.2C1041.21 341.053 1039.53 341.48 1037.66 341.48ZM1037.66 338.6C1038.81 338.6 1039.87 338.32 1040.86 337.76C1041.85 337.2 1042.65 336.36 1043.26 335.24C1043.87 334.12 1044.18 332.733 1044.18 331.08C1044.18 329.427 1043.87 328.04 1043.26 326.92C1042.67 325.8 1041.89 324.96 1040.9 324.4C1039.91 323.84 1038.86 323.56 1037.74 323.56C1036.59 323.56 1035.53 323.84 1034.54 324.4C1033.55 324.96 1032.75 325.8 1032.14 326.92C1031.53 328.04 1031.22 329.427 1031.22 331.08C1031.22 332.733 1031.53 334.12 1032.14 335.24C1032.75 336.36 1033.54 337.2 1034.5 337.76C1035.49 338.32 1036.54 338.6 1037.66 338.6ZM1058.89 341.48C1057.24 341.48 1055.86 341.2 1054.77 340.64C1053.68 340.08 1052.86 339.333 1052.33 338.4C1051.8 337.467 1051.53 336.453 1051.53 335.36C1051.53 333.333 1052.3 331.773 1053.85 330.68C1055.4 329.587 1057.5 329.04 1060.17 329.04H1065.53V328.8C1065.53 327.067 1065.08 325.76 1064.17 324.88C1063.26 323.973 1062.05 323.52 1060.53 323.52C1059.22 323.52 1058.09 323.853 1057.13 324.52C1056.2 325.16 1055.61 326.107 1055.37 327.36H1051.93C1052.06 325.92 1052.54 324.707 1053.37 323.72C1054.22 322.733 1055.28 321.987 1056.53 321.48C1057.78 320.947 1059.12 320.68 1060.53 320.68C1063.3 320.68 1065.38 321.427 1066.77 322.92C1068.18 324.387 1068.89 326.347 1068.89 328.8V341H1065.89L1065.69 337.44C1065.13 338.56 1064.3 339.52 1063.21 340.32C1062.14 341.093 1060.7 341.48 1058.89 341.48ZM1059.41 338.64C1060.69 338.64 1061.78 338.307 1062.69 337.64C1063.62 336.973 1064.33 336.107 1064.81 335.04C1065.29 333.973 1065.53 332.853 1065.53 331.68V331.64H1060.45C1058.48 331.64 1057.08 331.987 1056.25 332.68C1055.45 333.347 1055.05 334.187 1055.05 335.2C1055.05 336.24 1055.42 337.08 1056.17 337.72C1056.94 338.333 1058.02 338.64 1059.41 338.64ZM1082.93 341.48C1080.96 341.48 1079.23 341.027 1077.73 340.12C1076.27 339.213 1075.12 337.973 1074.29 336.4C1073.49 334.827 1073.09 333.04 1073.09 331.04C1073.09 329.04 1073.51 327.267 1074.33 325.72C1075.16 324.147 1076.31 322.92 1077.77 322.04C1079.24 321.133 1080.97 320.68 1082.97 320.68C1084.6 320.68 1086.04 321.013 1087.29 321.68C1088.55 322.347 1089.52 323.28 1090.21 324.48V312.2H1093.57V341H1090.53L1090.21 337.72C1089.57 338.68 1088.65 339.547 1087.45 340.32C1086.25 341.093 1084.75 341.48 1082.93 341.48ZM1083.29 338.56C1084.63 338.56 1085.8 338.253 1086.81 337.64C1087.85 337 1088.65 336.12 1089.21 335C1089.8 333.88 1090.09 332.573 1090.09 331.08C1090.09 329.587 1089.8 328.28 1089.21 327.16C1088.65 326.04 1087.85 325.173 1086.81 324.56C1085.8 323.92 1084.63 323.6 1083.29 323.6C1081.99 323.6 1080.81 323.92 1079.77 324.56C1078.76 325.173 1077.96 326.04 1077.37 327.16C1076.81 328.28 1076.53 329.587 1076.53 331.08C1076.53 332.573 1076.81 333.88 1077.37 335C1077.96 336.12 1078.76 337 1079.77 337.64C1080.81 338.253 1081.99 338.56 1083.29 338.56ZM1117.48 341C1115.66 341 1114.24 340.56 1113.2 339.68C1112.16 338.8 1111.64 337.213 1111.64 334.92V324H1108.19V321.16H1111.64L1112.08 316.4H1115V321.16H1120.84V324H1115V334.92C1115 336.173 1115.25 337.027 1115.76 337.48C1116.26 337.907 1117.16 338.12 1118.44 338.12H1120.52V341H1117.48ZM1125.1 341V312.2H1128.46V324.56C1129.13 323.333 1130.08 322.387 1131.3 321.72C1132.53 321.027 1133.86 320.68 1135.3 320.68C1137.6 320.68 1139.44 321.4 1140.82 322.84C1142.21 324.253 1142.9 326.44 1142.9 329.4V341H1139.58V329.76C1139.58 325.627 1137.92 323.56 1134.58 323.56C1132.85 323.56 1131.4 324.187 1130.22 325.44C1129.05 326.667 1128.46 328.427 1128.46 330.72V341H1125.1ZM1156.91 341.48C1155.02 341.48 1153.34 341.053 1151.87 340.2C1150.41 339.32 1149.25 338.107 1148.39 336.56C1147.57 335.013 1147.15 333.187 1147.15 331.08C1147.15 329 1147.57 327.187 1148.39 325.64C1149.22 324.067 1150.37 322.853 1151.83 322C1153.33 321.12 1155.05 320.68 1156.99 320.68C1158.91 320.68 1160.57 321.12 1161.95 322C1163.37 322.853 1164.45 323.987 1165.19 325.4C1165.94 326.813 1166.31 328.333 1166.31 329.96C1166.31 330.253 1166.3 330.547 1166.27 330.84C1166.27 331.133 1166.27 331.467 1166.27 331.84H1150.47C1150.55 333.36 1150.9 334.627 1151.51 335.64C1152.15 336.627 1152.94 337.373 1153.87 337.88C1154.83 338.387 1155.85 338.64 1156.91 338.64C1158.3 338.64 1159.46 338.32 1160.39 337.68C1161.33 337.04 1162.01 336.173 1162.43 335.08H1165.75C1165.22 336.92 1164.19 338.453 1162.67 339.68C1161.18 340.88 1159.26 341.48 1156.91 341.48ZM1156.91 323.52C1155.31 323.52 1153.89 324.013 1152.63 325C1151.41 325.96 1150.7 327.373 1150.51 329.24H1162.99C1162.91 327.453 1162.3 326.053 1161.15 325.04C1160.01 324.027 1158.59 323.52 1156.91 323.52ZM1182.43 341V324H1179.43V321.16H1182.43V317.72C1182.43 315.8 1182.91 314.4 1183.87 313.52C1184.83 312.64 1186.23 312.2 1188.07 312.2H1190.07V315.08H1188.59C1187.58 315.08 1186.86 315.293 1186.43 315.72C1186.01 316.12 1185.79 316.813 1185.79 317.8V321.16H1190.67V324H1185.79V341H1182.43ZM1201.91 341.48C1199.57 341.48 1197.7 340.773 1196.31 339.36C1194.93 337.92 1194.23 335.72 1194.23 332.76V321.16H1197.59V332.4C1197.59 336.533 1199.29 338.6 1202.67 338.6C1204.41 338.6 1205.83 337.987 1206.95 336.76C1208.1 335.507 1208.67 333.733 1208.67 331.44V321.16H1212.03V341H1208.99L1208.75 337.44C1208.14 338.693 1207.22 339.68 1205.99 340.4C1204.79 341.12 1203.43 341.48 1201.91 341.48ZM1217.56 341V312.2H1220.92V341H1217.56ZM1226.43 341V312.2H1229.79V341H1226.43ZM1245.89 341V321.16H1248.93L1249.21 324.96C1249.82 323.653 1250.75 322.613 1252.01 321.84C1253.26 321.067 1254.81 320.68 1256.65 320.68V324.2H1255.73C1254.55 324.2 1253.47 324.413 1252.49 324.84C1251.5 325.24 1250.71 325.933 1250.13 326.92C1249.54 327.907 1249.25 329.267 1249.25 331V341H1245.89ZM1268.59 341.48C1266.7 341.48 1265.02 341.053 1263.55 340.2C1262.09 339.32 1260.93 338.107 1260.07 336.56C1259.25 335.013 1258.83 333.187 1258.83 331.08C1258.83 329 1259.25 327.187 1260.07 325.64C1260.9 324.067 1262.05 322.853 1263.51 322C1265.01 321.12 1266.73 320.68 1268.67 320.68C1270.59 320.68 1272.25 321.12 1273.63 322C1275.05 322.853 1276.13 323.987 1276.87 325.4C1277.62 326.813 1277.99 328.333 1277.99 329.96C1277.99 330.253 1277.98 330.547 1277.95 330.84C1277.95 331.133 1277.95 331.467 1277.95 331.84H1262.15C1262.23 333.36 1262.58 334.627 1263.19 335.64C1263.83 336.627 1264.62 337.373 1265.55 337.88C1266.51 338.387 1267.53 338.64 1268.59 338.64C1269.98 338.64 1271.14 338.32 1272.07 337.68C1273.01 337.04 1273.69 336.173 1274.11 335.08H1277.43C1276.9 336.92 1275.87 338.453 1274.35 339.68C1272.86 340.88 1270.94 341.48 1268.59 341.48ZM1268.59 323.52C1266.99 323.52 1265.57 324.013 1264.31 325C1263.09 325.96 1262.38 327.373 1262.19 329.24H1274.67C1274.59 327.453 1273.98 326.053 1272.83 325.04C1271.69 324.027 1270.27 323.52 1268.59 323.52ZM1282.45 349.8V321.16H1285.49L1285.81 324.44C1286.45 323.48 1287.35 322.613 1288.53 321.84C1289.73 321.067 1291.25 320.68 1293.09 320.68C1295.06 320.68 1296.78 321.133 1298.25 322.04C1299.71 322.947 1300.85 324.187 1301.65 325.76C1302.47 327.333 1302.89 329.12 1302.89 331.12C1302.89 333.12 1302.47 334.907 1301.65 336.48C1300.85 338.027 1299.7 339.253 1298.21 340.16C1296.74 341.04 1295.02 341.48 1293.05 341.48C1291.42 341.48 1289.97 341.147 1288.69 340.48C1287.43 339.813 1286.47 338.88 1285.81 337.68V349.8H1282.45ZM1292.69 338.56C1294.02 338.56 1295.19 338.253 1296.21 337.64C1297.22 337 1298.02 336.12 1298.61 335C1299.19 333.88 1299.49 332.573 1299.49 331.08C1299.49 329.587 1299.19 328.28 1298.61 327.16C1298.02 326.04 1297.22 325.173 1296.21 324.56C1295.19 323.92 1294.02 323.6 1292.69 323.6C1291.35 323.6 1290.18 323.92 1289.17 324.56C1288.15 325.173 1287.35 326.04 1286.77 327.16C1286.18 328.28 1285.89 329.587 1285.89 331.08C1285.89 332.573 1286.18 333.88 1286.77 335C1287.35 336.12 1288.15 337 1289.17 337.64C1290.18 338.253 1291.35 338.56 1292.69 338.56ZM1316.6 341.48C1314.74 341.48 1313.06 341.053 1311.56 340.2C1310.07 339.347 1308.88 338.147 1308 336.6C1307.15 335.027 1306.72 333.187 1306.72 331.08C1306.72 328.973 1307.16 327.147 1308.04 325.6C1308.92 324.027 1310.11 322.813 1311.6 321.96C1313.12 321.107 1314.82 320.68 1316.68 320.68C1318.55 320.68 1320.23 321.107 1321.72 321.96C1323.22 322.813 1324.39 324.027 1325.24 325.6C1326.12 327.147 1326.56 328.973 1326.56 331.08C1326.56 333.187 1326.12 335.027 1325.24 336.6C1324.36 338.147 1323.16 339.347 1321.64 340.2C1320.15 341.053 1318.47 341.48 1316.6 341.48ZM1316.6 338.6C1317.75 338.6 1318.82 338.32 1319.8 337.76C1320.79 337.2 1321.59 336.36 1322.2 335.24C1322.82 334.12 1323.12 332.733 1323.12 331.08C1323.12 329.427 1322.82 328.04 1322.2 326.92C1321.62 325.8 1320.83 324.96 1319.84 324.4C1318.86 323.84 1317.8 323.56 1316.68 323.56C1315.54 323.56 1314.47 323.84 1313.48 324.4C1312.5 324.96 1311.7 325.8 1311.08 326.92C1310.47 328.04 1310.16 329.427 1310.16 331.08C1310.16 332.733 1310.47 334.12 1311.08 335.24C1311.7 336.36 1312.48 337.2 1313.44 337.76C1314.43 338.32 1315.48 338.6 1316.6 338.6ZM1331.24 341V321.16H1334.28L1334.56 324.96C1335.17 323.653 1336.1 322.613 1337.36 321.84C1338.61 321.067 1340.16 320.68 1342 320.68V324.2H1341.08C1339.9 324.2 1338.82 324.413 1337.84 324.84C1336.85 325.24 1336.06 325.933 1335.48 326.92C1334.89 327.907 1334.6 329.267 1334.6 331V341H1331.24ZM1353.61 341C1351.79 341 1350.37 340.56 1349.33 339.68C1348.29 338.8 1347.77 337.213 1347.77 334.92V324H1344.33V321.16H1347.77L1348.21 316.4H1351.13V321.16H1356.97V324H1351.13V334.92C1351.13 336.173 1351.38 337.027 1351.89 337.48C1352.39 337.907 1353.29 338.12 1354.57 338.12H1356.65V341H1353.61ZM1362.4 341.2C1361.73 341.2 1361.17 340.987 1360.72 340.56C1360.29 340.107 1360.08 339.56 1360.08 338.92C1360.08 338.28 1360.29 337.747 1360.72 337.32C1361.17 336.867 1361.73 336.64 1362.4 336.64C1363.04 336.64 1363.57 336.867 1364 337.32C1364.45 337.747 1364.68 338.28 1364.68 338.92C1364.68 339.56 1364.45 340.107 1364 340.56C1363.57 340.987 1363.04 341.2 1362.4 341.2Z" fill="#F5F5F5"/>
</g>
<path d="M0.5 0.5H1923.5V445C1923.5 488.907 1887.91 524.5 1844 524.5H0.5V0.5Z" stroke="url(#paint0_linear_1_517)"/>
<defs>
<filter id="filter0_f_1_517" x="-1521" y="-1372" width="2744" height="2744" filterUnits="userSpaceOnUse" color-interpolation-filters="sRGB">
<feFlood flood-opacity="0" result="BackgroundImageFix"/>
<feBlend mode="normal" in="SourceGraphic" in2="BackgroundImageFix" result="shape"/>
<feGaussianBlur stdDeviation="500" result="effect1_foregroundBlur_1_517"/>
</filter>
<filter id="filter1_f_1_517" x="-1063.23" y="-914.232" width="1828.46" height="1828.46" filterUnits="userSpaceOnUse" color-interpolation-filters="sRGB">
<feFlood flood-opacity="0" result="BackgroundImageFix"/>
<feBlend mode="normal" in="SourceGraphic" in2="BackgroundImageFix" result="shape"/>
<feGaussianBlur stdDeviation="344" result="effect1_foregroundBlur_1_517"/>
</filter>
<filter id="filter2_f_1_517" x="957" y="-275" width="1512" height="1512" filterUnits="userSpaceOnUse" color-interpolation-filters="sRGB">
<feFlood flood-opacity="0" result="BackgroundImageFix"/>
<feBlend mode="normal" in="SourceGraphic" in2="BackgroundImageFix" result="shape"/>
<feGaussianBlur stdDeviation="266" result="effect1_foregroundBlur_1_517"/>
</filter>
<linearGradient id="paint0_linear_1_517" x1="1789.97" y1="-4.76322e-06" x2="-375.314" y2="113.199" gradientUnits="userSpaceOnUse">
<stop stop-color="#5FB083"/>
<stop offset="1" stop-color="#BDFF00"/>
</linearGradient>
<clipPath id="clip0_1_517">
<path d="M0 0H1924V445C1924 489.183 1888.18 525 1844 525H0V0Z" fill="white"/>
</clipPath>
</defs>
</svg>
