<svg width="290" height="78" viewBox="0 0 290 78" fill="none" xmlns="http://www.w3.org/2000/svg">
<g filter="url(#filter0_b_3_34)">
<rect width="290" height="78" rx="20" fill="url(#paint0_linear_3_34)"/>
<path d="M20.272 48V25.6H23.664V45.312H33.84V48H20.272ZM44.0993 48.384C42.5419 48.384 41.1553 48.0427 39.9393 47.36C38.7446 46.656 37.8059 45.6853 37.1233 44.448C36.4406 43.2107 36.0993 41.7707 36.0993 40.128C36.0993 38.464 36.4299 37.0027 37.0913 35.744C37.7739 34.4853 38.7126 33.504 39.9073 32.8C41.1233 32.096 42.5313 31.744 44.1313 31.744C45.6886 31.744 47.0433 32.096 48.1953 32.8C49.3473 33.4827 50.2433 34.4 50.8833 35.552C51.5233 36.704 51.8433 37.9733 51.8433 39.36C51.8433 39.5733 51.8326 39.808 51.8113 40.064C51.8113 40.2987 51.8006 40.5653 51.7793 40.864H39.4273C39.5339 42.4 40.0353 43.5733 40.9313 44.384C41.8486 45.1733 42.9046 45.568 44.0993 45.568C45.0593 45.568 45.8593 45.3547 46.4993 44.928C47.1606 44.48 47.6513 43.8827 47.9713 43.136H51.3633C50.9366 44.6293 50.0833 45.8773 48.8033 46.88C47.5446 47.8827 45.9766 48.384 44.0993 48.384ZM44.0993 34.528C42.9686 34.528 41.9659 34.8693 41.0913 35.552C40.2166 36.2133 39.6833 37.216 39.4913 38.56H48.4513C48.3873 37.3227 47.9499 36.3413 47.1393 35.616C46.3286 34.8907 45.3153 34.528 44.0993 34.528ZM60.7388 48.384C59.3948 48.384 58.2854 48.16 57.4108 47.712C56.5361 47.264 55.8854 46.6773 55.4588 45.952C55.0321 45.2053 54.8188 44.3947 54.8188 43.52C54.8188 41.984 55.4161 40.768 56.6108 39.872C57.8054 38.976 59.5121 38.528 61.7308 38.528H65.8908V38.24C65.8908 37.0027 65.5494 36.0747 64.8668 35.456C64.2054 34.8373 63.3414 34.528 62.2748 34.528C61.3361 34.528 60.5148 34.7627 59.8108 35.232C59.1281 35.68 58.7121 36.352 58.5628 37.248H55.1708C55.2774 36.096 55.6614 35.1147 56.3228 34.304C57.0054 33.472 57.8588 32.8427 58.8828 32.416C59.9281 31.968 61.0694 31.744 62.3068 31.744C64.5254 31.744 66.2428 32.3307 67.4588 33.504C68.6748 34.656 69.2828 36.2347 69.2828 38.24V48H66.3388L66.0508 45.28C65.6028 46.1547 64.9521 46.8907 64.0988 47.488C63.2454 48.0853 62.1254 48.384 60.7388 48.384ZM61.4108 45.632C62.3281 45.632 63.0961 45.4187 63.7148 44.992C64.3548 44.544 64.8454 43.9573 65.1868 43.232C65.5494 42.5067 65.7734 41.7067 65.8588 40.832H62.0828C60.7388 40.832 59.7788 41.0667 59.2028 41.536C58.6481 42.0053 58.3708 42.592 58.3708 43.296C58.3708 44.0213 58.6374 44.5973 59.1708 45.024C59.7254 45.4293 60.4721 45.632 61.4108 45.632ZM73.2378 48V32.128H76.2778L76.5658 35.136C77.1204 34.0907 77.8884 33.2693 78.8698 32.672C79.8724 32.0533 81.0778 31.744 82.4858 31.744V35.296H81.5578C80.6191 35.296 79.7764 35.456 79.0298 35.776C78.3044 36.0747 77.7178 36.5973 77.2698 37.344C76.8431 38.0693 76.6298 39.0827 76.6298 40.384V48H73.2378ZM85.394 48V32.128H88.402L88.658 34.912C89.1487 33.9307 89.8633 33.1627 90.802 32.608C91.762 32.032 92.8607 31.744 94.098 31.744C96.018 31.744 97.522 32.3413 98.61 33.536C99.7193 34.7307 100.274 36.512 100.274 38.88V48H96.914V39.232C96.914 36.16 95.6553 34.624 93.138 34.624C91.8793 34.624 90.834 35.072 90.002 35.968C89.1913 36.864 88.786 38.144 88.786 39.808V48H85.394ZM112.46 48V25.6H116.46L124.044 40.512L131.596 25.6H135.596V48H132.204V31.456L125.356 44.8H122.732L115.852 31.488V48H112.46ZM147.443 48.384C145.928 48.384 144.563 48.0427 143.347 47.36C142.152 46.656 141.203 45.6853 140.499 44.448C139.795 43.1893 139.443 41.728 139.443 40.064C139.443 38.4 139.795 36.9493 140.499 35.712C141.224 34.4533 142.195 33.4827 143.411 32.8C144.627 32.096 145.982 31.744 147.475 31.744C148.99 31.744 150.344 32.096 151.539 32.8C152.755 33.4827 153.715 34.4533 154.419 35.712C155.144 36.9493 155.507 38.4 155.507 40.064C155.507 41.728 155.144 43.1893 154.419 44.448C153.715 45.6853 152.755 46.656 151.539 47.36C150.323 48.0427 148.958 48.384 147.443 48.384ZM147.443 45.472C148.254 45.472 149 45.2693 149.683 44.864C150.387 44.4587 150.952 43.8613 151.379 43.072C151.806 42.2613 152.019 41.2587 152.019 40.064C152.019 38.8693 151.806 37.8773 151.379 37.088C150.974 36.2773 150.419 35.6693 149.715 35.264C149.032 34.8587 148.286 34.656 147.475 34.656C146.664 34.656 145.907 34.8587 145.203 35.264C144.52 35.6693 143.966 36.2773 143.539 37.088C143.112 37.8773 142.899 38.8693 142.899 40.064C142.899 41.2587 143.112 42.2613 143.539 43.072C143.966 43.8613 144.52 44.4587 145.203 44.864C145.886 45.2693 146.632 45.472 147.443 45.472ZM159.175 48V32.128H162.215L162.503 35.136C163.058 34.0907 163.826 33.2693 164.807 32.672C165.81 32.0533 167.015 31.744 168.423 31.744V35.296H167.495C166.557 35.296 165.714 35.456 164.967 35.776C164.242 36.0747 163.655 36.5973 163.207 37.344C162.781 38.0693 162.567 39.0827 162.567 40.384V48H159.175ZM178.318 48.384C176.761 48.384 175.374 48.0427 174.158 47.36C172.963 46.656 172.025 45.6853 171.342 44.448C170.659 43.2107 170.318 41.7707 170.318 40.128C170.318 38.464 170.649 37.0027 171.31 35.744C171.993 34.4853 172.931 33.504 174.126 32.8C175.342 32.096 176.75 31.744 178.35 31.744C179.907 31.744 181.262 32.096 182.414 32.8C183.566 33.4827 184.462 34.4 185.102 35.552C185.742 36.704 186.062 37.9733 186.062 39.36C186.062 39.5733 186.051 39.808 186.03 40.064C186.03 40.2987 186.019 40.5653 185.998 40.864H173.646C173.753 42.4 174.254 43.5733 175.15 44.384C176.067 45.1733 177.123 45.568 178.318 45.568C179.278 45.568 180.078 45.3547 180.718 44.928C181.379 44.48 181.87 43.8827 182.19 43.136H185.582C185.155 44.6293 184.302 45.8773 183.022 46.88C181.763 47.8827 180.195 48.384 178.318 48.384ZM178.318 34.528C177.187 34.528 176.185 34.8693 175.31 35.552C174.435 36.2133 173.902 37.216 173.71 38.56H182.67C182.606 37.3227 182.169 36.3413 181.358 35.616C180.547 34.8907 179.534 34.528 178.318 34.528Z" fill="#0F0F0F"/>
<path d="M222 53.6667C231.205 53.6667 238.667 46.2048 238.667 37C238.667 27.7953 231.205 20.3334 222 20.3334C212.795 20.3334 205.333 27.7953 205.333 37C205.333 46.2048 212.795 53.6667 222 53.6667Z" fill="#122038"/>
<path d="M219.778 43.6667L226.444 37L219.778 30.3334" stroke="#31E876" stroke-width="3.33333" stroke-linecap="round" stroke-linejoin="round"/>
</g>
<defs>
<filter id="filter0_b_3_34" x="-19" y="-19" width="328" height="116" filterUnits="userSpaceOnUse" color-interpolation-filters="sRGB">
<feFlood flood-opacity="0" result="BackgroundImageFix"/>
<feGaussianBlur in="BackgroundImageFix" stdDeviation="9.5"/>
<feComposite in2="SourceAlpha" operator="in" result="effect1_backgroundBlur_3_34"/>
<feBlend mode="normal" in="SourceGraphic" in2="effect1_backgroundBlur_3_34" result="shape"/>
</filter>
<linearGradient id="paint0_linear_3_34" x1="273.695" y1="-8.02941" x2="-66.4078" y2="132.035" gradientUnits="userSpaceOnUse">
<stop stop-color="#5AAF87"/>
<stop offset="1" stop-color="#D3BD00"/>
</linearGradient>
</defs>
</svg>
