<svg width="168" height="42" viewBox="0 0 168 42" fill="none" xmlns="http://www.w3.org/2000/svg">
<circle opacity="0.5" cx="147.08" cy="20.92" r="19.92" stroke="#122038"/>
<path fill-rule="evenodd" clip-rule="evenodd" d="M147.078 14.2798C145.274 14.2798 145.05 14.2875 144.34 14.3207C141.928 14.4314 140.589 15.7694 140.478 18.1819C140.446 18.8913 140.438 19.117 140.438 20.9198C140.438 22.7237 140.446 22.9494 140.478 23.6577C140.589 26.0691 141.928 27.4093 144.34 27.5199C145.05 27.552 145.274 27.5598 147.078 27.5598C148.882 27.5598 149.108 27.552 149.817 27.5199C152.225 27.4093 153.57 26.0713 153.678 23.6577C153.71 22.9494 153.718 22.7237 153.718 20.9198C153.718 19.117 153.71 18.8913 153.678 18.1819C153.57 15.7727 152.23 14.4303 149.817 14.3207C149.108 14.2875 148.882 14.2798 147.078 14.2798ZM147.075 15.4778C148.848 15.4778 149.058 15.4844 149.759 15.5165C151.559 15.5984 152.398 16.4516 152.481 18.2378C152.512 18.9383 152.519 19.1475 152.519 20.9204C152.519 22.6932 152.512 22.9035 152.481 23.6029C152.398 25.388 151.56 26.2434 149.759 26.3253C149.058 26.3563 148.849 26.3641 147.075 26.3641C145.302 26.3641 145.092 26.3574 144.392 26.3253C142.589 26.2423 141.753 25.3858 141.67 23.6029C141.639 22.9035 141.631 22.6932 141.631 20.9204C141.631 19.1475 141.639 18.9372 141.67 18.2378C141.752 16.4505 142.591 15.5973 144.392 15.5154C145.092 15.4833 145.302 15.4778 147.075 15.4778ZM143.667 20.9203C143.667 19.0367 145.195 17.5106 147.077 17.5106C148.96 17.5106 150.487 19.0378 150.487 20.9203C150.487 22.8038 148.96 24.3299 147.077 24.3299C145.195 24.3299 143.667 22.8038 143.667 20.9203ZM147.08 23.1337C145.858 23.1337 144.867 22.1432 144.867 20.9203C144.867 19.6986 145.858 18.707 147.08 18.707C148.302 18.707 149.295 19.6975 149.295 20.9203C149.295 22.1432 148.302 23.1337 147.08 23.1337ZM149.828 17.3753C149.828 16.9348 150.185 16.5785 150.624 16.5785C151.066 16.5785 151.422 16.9348 151.422 17.3753C151.422 17.8157 151.065 18.1721 150.624 18.1721C150.184 18.1721 149.828 17.8146 149.828 17.3753Z" fill="#122038"/>
<circle opacity="0.5" cx="84.0018" cy="20.92" r="19.92" stroke="#122038"/>
<path d="M90.6418 17.2181C90.1538 17.435 89.6281 17.5811 89.077 17.6475C89.6403 17.31 90.0708 16.7766 90.2755 16.1402C89.7487 16.4523 89.1655 16.6792 88.5447 16.8009C88.0489 16.2708 87.3395 15.9399 86.5571 15.9399C84.7975 15.9399 83.5049 17.5811 83.9022 19.2854C81.6391 19.1714 79.6305 18.0869 78.287 16.439C77.5732 17.663 77.9174 19.2655 79.1303 20.0767C78.6843 20.0623 78.2649 19.9394 77.8974 19.7358C77.8676 20.9974 78.7728 22.1782 80.0831 22.4416C79.7002 22.5456 79.2797 22.57 78.8525 22.4881C79.1989 23.5704 80.2071 24.3572 81.3978 24.3794C80.2502 25.278 78.8082 25.6797 77.3618 25.5093C78.5681 26.2828 79.999 26.7333 81.5373 26.7333C86.5969 26.7333 89.4544 22.4604 89.2817 18.628C89.8151 18.2451 90.2766 17.7648 90.6418 17.2181Z" fill="#122038"/>
<circle opacity="0.5" cx="20.92" cy="20.92" r="19.92" stroke="#122038"/>
<path d="M18.9834 18.7065H16.77V20.9198H18.9834V27.5598H22.3034V20.9198H24.3175L24.5167 18.7065H22.3034V17.7846C22.3034 17.2556 22.4096 17.0465 22.9209 17.0465H24.5167V14.2798H21.8563C19.8665 14.2798 18.9834 15.1563 18.9834 16.834V18.7065Z" fill="#122038"/>
</svg>
